<svg xmlns="http://www.w3.org/2000/svg" xmlns:xlink="http://www.w3.org/1999/xlink" width="500" zoomAndPan="magnify" viewBox="0 0 375 374.999991" height="500" preserveAspectRatio="xMidYMid meet" version="1.0"><defs><g><g id="id1"/><g id="id2"/></g><clipPath id="id3"><path d="M 107 129 L 185 129 L 185 241.71875 L 107 241.71875 Z M 107 129 " clip-rule="nonzero"/></clipPath><clipPath id="id4"><path d="M 256 47 L 309.695312 47 L 309.695312 120 L 256 120 Z M 256 47 " clip-rule="nonzero"/></clipPath><clipPath id="id5"><path d="M 65.210938 100 L 129 100 L 129 104 L 65.210938 104 Z M 65.210938 100 " clip-rule="nonzero"/></clipPath><clipPath id="id6"><path d="M 85 7.71875 L 180 7.71875 L 180 108 L 85 108 Z M 85 7.71875 " clip-rule="nonzero"/></clipPath><clipPath id="id7"><path d="M 138 7.71875 L 205 7.71875 L 205 100 L 138 100 Z M 138 7.71875 " clip-rule="nonzero"/></clipPath><clipPath id="id8"><path d="M 168 7.71875 L 279 7.71875 L 279 102 L 168 102 Z M 168 7.71875 " clip-rule="nonzero"/></clipPath><clipPath id="id9"><path d="M 189 67 L 309.695312 67 L 309.695312 133 L 189 133 Z M 189 67 " clip-rule="nonzero"/></clipPath></defs><g fill="rgb(100%, 50.979614%, 50.979614%)" fill-opacity="1"><g transform="translate(55.463987, 280.827783)"><g><path d="M 17.5 -11.84375 L 23.171875 -11.84375 L 23.171875 -2.4375 C 21.867188 -1.5 20.375 -0.78125 18.6875 -0.28125 C 17 0.207031 15.3125 0.453125 13.625 0.453125 C 11.25 0.453125 9.109375 -0.046875 7.203125 -1.046875 C 5.296875 -2.054688 3.800781 -3.457031 2.71875 -5.25 C 1.644531 -7.050781 1.109375 -9.085938 1.109375 -11.359375 C 1.109375 -13.628906 1.644531 -15.660156 2.71875 -17.453125 C 3.800781 -19.253906 5.304688 -20.65625 7.234375 -21.65625 C 9.160156 -22.664062 11.335938 -23.171875 13.765625 -23.171875 C 15.878906 -23.171875 17.78125 -22.8125 19.46875 -22.09375 C 21.15625 -21.382812 22.5625 -20.359375 23.6875 -19.015625 L 19.609375 -15.3125 C 18.066406 -17 16.222656 -17.84375 14.078125 -17.84375 C 12.128906 -17.84375 10.5625 -17.253906 9.375 -16.078125 C 8.1875 -14.898438 7.59375 -13.328125 7.59375 -11.359375 C 7.59375 -10.097656 7.863281 -8.972656 8.40625 -7.984375 C 8.945312 -7.003906 9.703125 -6.238281 10.671875 -5.6875 C 11.648438 -5.144531 12.765625 -4.875 14.015625 -4.875 C 15.253906 -4.875 16.414062 -5.117188 17.5 -5.609375 Z M 17.5 -11.84375 "/></g></g></g><g fill="rgb(100%, 50.979614%, 50.979614%)" fill-opacity="1"><g transform="translate(86.553608, 280.827783)"><g><path d="M 19.953125 -8.765625 C 19.953125 -8.722656 19.921875 -8.210938 19.859375 -7.234375 L 7.078125 -7.234375 C 7.335938 -6.328125 7.835938 -5.628906 8.578125 -5.140625 C 9.328125 -4.648438 10.265625 -4.40625 11.390625 -4.40625 C 12.234375 -4.40625 12.960938 -4.523438 13.578125 -4.765625 C 14.191406 -5.003906 14.816406 -5.394531 15.453125 -5.9375 L 18.6875 -2.5625 C 16.976562 -0.65625 14.484375 0.296875 11.203125 0.296875 C 9.140625 0.296875 7.328125 -0.09375 5.765625 -0.875 C 4.210938 -1.65625 3.007812 -2.738281 2.15625 -4.125 C 1.300781 -5.507812 0.875 -7.078125 0.875 -8.828125 C 0.875 -10.554688 1.289062 -12.109375 2.125 -13.484375 C 2.957031 -14.859375 4.109375 -15.929688 5.578125 -16.703125 C 7.046875 -17.484375 8.703125 -17.875 10.546875 -17.875 C 12.296875 -17.875 13.882812 -17.507812 15.3125 -16.78125 C 16.738281 -16.0625 17.867188 -15.015625 18.703125 -13.640625 C 19.535156 -12.265625 19.953125 -10.640625 19.953125 -8.765625 Z M 10.578125 -13.5 C 9.628906 -13.5 8.832031 -13.226562 8.1875 -12.6875 C 7.550781 -12.144531 7.148438 -11.410156 6.984375 -10.484375 L 14.1875 -10.484375 C 14.007812 -11.410156 13.597656 -12.144531 12.953125 -12.6875 C 12.316406 -13.226562 11.523438 -13.5 10.578125 -13.5 Z M 10.578125 -13.5 "/></g></g></g><g fill="rgb(100%, 50.979614%, 50.979614%)" fill-opacity="1"><g transform="translate(113.489734, 280.827783)"><g><path d="M 14.109375 -0.71875 C 13.597656 -0.394531 12.96875 -0.144531 12.21875 0.03125 C 11.46875 0.207031 10.671875 0.296875 9.828125 0.296875 C 7.535156 0.296875 5.769531 -0.265625 4.53125 -1.390625 C 3.300781 -2.515625 2.6875 -4.191406 2.6875 -6.421875 L 2.6875 -12.328125 L 0.125 -12.328125 L 0.125 -16.9375 L 2.6875 -16.9375 L 2.6875 -21.515625 L 8.859375 -21.515625 L 8.859375 -16.9375 L 12.890625 -16.9375 L 12.890625 -12.328125 L 8.859375 -12.328125 L 8.859375 -6.484375 C 8.859375 -5.859375 9.023438 -5.367188 9.359375 -5.015625 C 9.691406 -4.660156 10.140625 -4.484375 10.703125 -4.484375 C 11.421875 -4.484375 12.050781 -4.664062 12.59375 -5.03125 Z M 14.109375 -0.71875 "/></g></g></g><g fill="rgb(100%, 50.979614%, 50.979614%)" fill-opacity="1"><g transform="translate(134.09827, 280.827783)"><g/></g></g><g fill="rgb(100%, 50.979614%, 50.979614%)" fill-opacity="1"><g transform="translate(149.644736, 280.827783)"><g><path d="M 13.59375 0.453125 C 11.21875 0.453125 9.082031 -0.046875 7.1875 -1.046875 C 5.289062 -2.054688 3.800781 -3.457031 2.71875 -5.25 C 1.644531 -7.050781 1.109375 -9.085938 1.109375 -11.359375 C 1.109375 -13.628906 1.644531 -15.660156 2.71875 -17.453125 C 3.800781 -19.253906 5.289062 -20.65625 7.1875 -21.65625 C 9.082031 -22.664062 11.21875 -23.171875 13.59375 -23.171875 C 15.675781 -23.171875 17.550781 -22.800781 19.21875 -22.0625 C 20.882812 -21.332031 22.265625 -20.273438 23.359375 -18.890625 L 19.28125 -15.1875 C 17.800781 -16.957031 16.015625 -17.84375 13.921875 -17.84375 C 12.691406 -17.84375 11.59375 -17.570312 10.625 -17.03125 C 9.664062 -16.488281 8.921875 -15.722656 8.390625 -14.734375 C 7.859375 -13.753906 7.59375 -12.628906 7.59375 -11.359375 C 7.59375 -10.078125 7.859375 -8.941406 8.390625 -7.953125 C 8.921875 -6.972656 9.664062 -6.210938 10.625 -5.671875 C 11.59375 -5.140625 12.691406 -4.875 13.921875 -4.875 C 16.015625 -4.875 17.800781 -5.757812 19.28125 -7.53125 L 23.359375 -3.828125 C 22.265625 -2.441406 20.882812 -1.378906 19.21875 -0.640625 C 17.550781 0.0859375 15.675781 0.453125 13.59375 0.453125 Z M 13.59375 0.453125 "/></g></g></g><g fill="rgb(100%, 50.979614%, 50.979614%)" fill-opacity="1"><g transform="translate(179.695981, 280.827783)"><g><path d="M 7.859375 -15.484375 C 8.484375 -16.285156 9.296875 -16.882812 10.296875 -17.28125 C 11.304688 -17.675781 12.460938 -17.875 13.765625 -17.875 L 13.765625 -12.328125 C 13.203125 -12.390625 12.734375 -12.421875 12.359375 -12.421875 C 11.046875 -12.421875 10.015625 -12.0625 9.265625 -11.34375 C 8.515625 -10.632812 8.140625 -9.546875 8.140625 -8.078125 L 8.140625 0 L 1.984375 0 L 1.984375 -17.59375 L 7.859375 -17.59375 Z M 7.859375 -15.484375 "/></g></g></g><g fill="rgb(100%, 50.979614%, 50.979614%)" fill-opacity="1"><g transform="translate(200.174724, 280.827783)"><g><path d="M 9.46875 -17.875 C 12.394531 -17.875 14.625 -17.207031 16.15625 -15.875 C 17.695312 -14.550781 18.46875 -12.515625 18.46875 -9.765625 L 18.46875 0 L 12.71875 0 L 12.71875 -2.265625 C 11.832031 -0.554688 10.101562 0.296875 7.53125 0.296875 C 6.164062 0.296875 4.984375 0.0546875 3.984375 -0.421875 C 2.992188 -0.898438 2.242188 -1.539062 1.734375 -2.34375 C 1.222656 -3.15625 0.96875 -4.082031 0.96875 -5.125 C 0.96875 -6.789062 1.601562 -8.082031 2.875 -9 C 4.15625 -9.925781 6.128906 -10.390625 8.796875 -10.390625 L 12.296875 -10.390625 C 12.191406 -12.242188 10.945312 -13.171875 8.5625 -13.171875 C 7.71875 -13.171875 6.863281 -13.035156 6 -12.765625 C 5.132812 -12.492188 4.398438 -12.125 3.796875 -11.65625 L 1.71875 -15.84375 C 2.695312 -16.488281 3.878906 -16.988281 5.265625 -17.34375 C 6.660156 -17.695312 8.0625 -17.875 9.46875 -17.875 Z M 9.25 -3.609375 C 9.957031 -3.609375 10.582031 -3.78125 11.125 -4.125 C 11.664062 -4.46875 12.054688 -4.972656 12.296875 -5.640625 L 12.296875 -7.171875 L 9.640625 -7.171875 C 7.835938 -7.171875 6.9375 -6.578125 6.9375 -5.390625 C 6.9375 -4.847656 7.140625 -4.414062 7.546875 -4.09375 C 7.960938 -3.769531 8.53125 -3.609375 9.25 -3.609375 Z M 9.25 -3.609375 "/></g></g></g><g fill="rgb(100%, 50.979614%, 50.979614%)" fill-opacity="1"><g transform="translate(226.656568, 280.827783)"><g><path d="M 10.96875 0.296875 C 9.019531 0.296875 7.273438 -0.09375 5.734375 -0.875 C 4.203125 -1.65625 3.007812 -2.738281 2.15625 -4.125 C 1.300781 -5.507812 0.875 -7.078125 0.875 -8.828125 C 0.875 -10.578125 1.300781 -12.140625 2.15625 -13.515625 C 3.007812 -14.890625 4.203125 -15.957031 5.734375 -16.71875 C 7.273438 -17.488281 9.019531 -17.875 10.96875 -17.875 C 12.957031 -17.875 14.675781 -17.445312 16.125 -16.59375 C 17.570312 -15.738281 18.601562 -14.554688 19.21875 -13.046875 L 14.4375 -10.609375 C 13.632812 -12.191406 12.46875 -12.984375 10.9375 -12.984375 C 9.832031 -12.984375 8.914062 -12.613281 8.1875 -11.875 C 7.46875 -11.144531 7.109375 -10.128906 7.109375 -8.828125 C 7.109375 -7.503906 7.46875 -6.46875 8.1875 -5.71875 C 8.914062 -4.976562 9.832031 -4.609375 10.9375 -4.609375 C 12.46875 -4.609375 13.632812 -5.398438 14.4375 -6.984375 L 19.21875 -4.546875 C 18.601562 -3.023438 17.570312 -1.835938 16.125 -0.984375 C 14.675781 -0.128906 12.957031 0.296875 10.96875 0.296875 Z M 10.96875 0.296875 "/></g></g></g><g fill="rgb(100%, 50.979614%, 50.979614%)" fill-opacity="1"><g transform="translate(252.327164, 280.827783)"><g><path d="M 9.96875 -6.171875 L 8.140625 -4.3125 L 8.140625 0 L 1.984375 0 L 1.984375 -24.078125 L 8.140625 -24.078125 L 8.140625 -11.453125 L 14.4375 -17.59375 L 21.75 -17.59375 L 14.4375 -10.0625 L 22.359375 0 L 14.890625 0 Z M 9.96875 -6.171875 "/></g></g></g><g fill="rgb(100%, 50.979614%, 50.979614%)" fill-opacity="1"><g transform="translate(280.691046, 280.827783)"><g><path d="M 1.984375 -17.59375 L 8.140625 -17.59375 L 8.140625 0 L 1.984375 0 Z M 5.0625 -19.53125 C 3.9375 -19.53125 3.023438 -19.84375 2.328125 -20.46875 C 1.640625 -21.101562 1.296875 -21.882812 1.296875 -22.8125 C 1.296875 -23.738281 1.640625 -24.515625 2.328125 -25.140625 C 3.023438 -25.773438 3.9375 -26.09375 5.0625 -26.09375 C 6.1875 -26.09375 7.09375 -25.796875 7.78125 -25.203125 C 8.476562 -24.609375 8.828125 -23.84375 8.828125 -22.90625 C 8.828125 -21.9375 8.476562 -21.128906 7.78125 -20.484375 C 7.09375 -19.847656 6.1875 -19.53125 5.0625 -19.53125 Z M 5.0625 -19.53125 "/></g></g></g><g fill="rgb(100%, 50.979614%, 50.979614%)" fill-opacity="1"><g transform="translate(296.951382, 280.827783)"><g><path d="M 13.4375 -17.875 C 15.625 -17.875 17.378906 -17.222656 18.703125 -15.921875 C 20.035156 -14.628906 20.703125 -12.675781 20.703125 -10.0625 L 20.703125 0 L 14.53125 0 L 14.53125 -9.046875 C 14.53125 -11.453125 13.570312 -12.65625 11.65625 -12.65625 C 10.59375 -12.65625 9.738281 -12.304688 9.09375 -11.609375 C 8.457031 -10.921875 8.140625 -9.882812 8.140625 -8.5 L 8.140625 0 L 1.984375 0 L 1.984375 -17.59375 L 7.859375 -17.59375 L 7.859375 -15.671875 C 8.546875 -16.390625 9.363281 -16.9375 10.3125 -17.3125 C 11.269531 -17.6875 12.3125 -17.875 13.4375 -17.875 Z M 13.4375 -17.875 "/></g></g></g><g fill="rgb(100%, 50.979614%, 50.979614%)" fill-opacity="1"><g transform="translate(41.528541, 307.548642)"><g><path d="M 4.015625 -2.046875 L 9.828125 -2.046875 L 9.828125 0 L 1.765625 0 L 1.765625 -13.40625 L 4.015625 -13.40625 Z M 4.015625 -2.046875 "/></g></g></g><g fill="rgb(100%, 50.979614%, 50.979614%)" fill-opacity="1"><g transform="translate(56.810903, 307.548642)"><g><path d="M 11.34375 -11.375 L 4.015625 -11.375 L 4.015625 -7.765625 L 10.578125 -7.765625 L 10.578125 -5.734375 L 4.015625 -5.734375 L 4.015625 -2.03125 L 11.578125 -2.03125 L 11.578125 0 L 1.765625 0 L 1.765625 -13.40625 L 11.34375 -13.40625 Z M 11.34375 -11.375 "/></g></g></g><g fill="rgb(100%, 50.979614%, 50.979614%)" fill-opacity="1"><g transform="translate(74.429381, 307.548642)"><g><path d="M 10.921875 -11.375 L 6.671875 -11.375 L 6.671875 0 L 4.40625 0 L 4.40625 -11.375 L 0.171875 -11.375 L 0.171875 -13.40625 L 10.921875 -13.40625 Z M 10.921875 -11.375 "/></g></g></g><g fill="rgb(100%, 50.979614%, 50.979614%)" fill-opacity="1"><g transform="translate(90.573429, 307.548642)"><g/></g></g><g fill="rgb(100%, 50.979614%, 50.979614%)" fill-opacity="1"><g transform="translate(100.570804, 307.548642)"><g><path d="M 15.9375 0 L 13.84375 0 L 13.828125 -10.015625 L 9.59375 -1.390625 L 8.125 -1.390625 L 3.890625 -10.015625 L 3.890625 0 L 1.765625 0 L 1.765625 -13.40625 L 4.4375 -13.40625 L 8.875 -4.5 L 13.28125 -13.40625 L 15.9375 -13.40625 Z M 15.9375 0 "/></g></g></g><g fill="rgb(100%, 50.979614%, 50.979614%)" fill-opacity="1"><g transform="translate(123.340207, 307.548642)"><g><path d="M 2.703125 -11.515625 C 4.066406 -12.816406 5.75 -13.46875 7.75 -13.46875 C 9.757812 -13.46875 11.445312 -12.816406 12.8125 -11.515625 C 14.175781 -10.222656 14.859375 -8.617188 14.859375 -6.703125 C 14.859375 -4.785156 14.175781 -3.171875 12.8125 -1.859375 C 11.445312 -0.554688 9.757812 0.09375 7.75 0.09375 C 5.75 0.09375 4.066406 -0.554688 2.703125 -1.859375 C 1.335938 -3.171875 0.65625 -4.785156 0.65625 -6.703125 C 0.65625 -8.617188 1.335938 -10.222656 2.703125 -11.515625 Z M 7.78125 -11.4375 C 6.445312 -11.4375 5.304688 -10.976562 4.359375 -10.0625 C 3.421875 -9.15625 2.953125 -8.035156 2.953125 -6.703125 C 2.953125 -5.378906 3.425781 -4.253906 4.375 -3.328125 C 5.320312 -2.398438 6.453125 -1.9375 7.765625 -1.9375 C 9.085938 -1.9375 10.210938 -2.398438 11.140625 -3.328125 C 12.078125 -4.253906 12.546875 -5.378906 12.546875 -6.703125 C 12.546875 -8.035156 12.078125 -9.15625 11.140625 -10.0625 C 10.210938 -10.976562 9.09375 -11.4375 7.78125 -11.4375 Z M 7.78125 -11.4375 "/></g></g></g><g fill="rgb(100%, 50.979614%, 50.979614%)" fill-opacity="1"><g transform="translate(143.907539, 307.548642)"><g><path d="M 10.921875 -11.375 L 6.671875 -11.375 L 6.671875 0 L 4.40625 0 L 4.40625 -11.375 L 0.171875 -11.375 L 0.171875 -13.40625 L 10.921875 -13.40625 Z M 10.921875 -11.375 "/></g></g></g><g fill="rgb(100%, 50.979614%, 50.979614%)" fill-opacity="1"><g transform="translate(160.051581, 307.548642)"><g><path d="M 13.390625 0 L 11.125 0 L 11.125 -5.5625 L 4.015625 -5.5625 L 4.015625 0 L 1.765625 0 L 1.765625 -13.40625 L 4.015625 -13.40625 L 4.015625 -7.578125 L 11.125 -7.578125 L 11.125 -13.40625 L 13.390625 -13.40625 Z M 13.390625 0 "/></g></g></g><g fill="rgb(100%, 50.979614%, 50.979614%)" fill-opacity="1"><g transform="translate(180.255094, 307.548642)"><g><path d="M 11.34375 -11.375 L 4.015625 -11.375 L 4.015625 -7.765625 L 10.578125 -7.765625 L 10.578125 -5.734375 L 4.015625 -5.734375 L 4.015625 -2.03125 L 11.578125 -2.03125 L 11.578125 0 L 1.765625 0 L 1.765625 -13.40625 L 11.34375 -13.40625 Z M 11.34375 -11.375 "/></g></g></g><g fill="rgb(100%, 50.979614%, 50.979614%)" fill-opacity="1"><g transform="translate(197.87357, 307.548642)"><g><path d="M 10.265625 0 L 7.8125 -4.0625 C 7.6875 -4.050781 7.484375 -4.046875 7.203125 -4.046875 L 4.015625 -4.046875 L 4.015625 0 L 1.765625 0 L 1.765625 -13.40625 L 7.203125 -13.40625 C 8.910156 -13.40625 10.238281 -13.003906 11.1875 -12.203125 C 12.132812 -11.410156 12.609375 -10.285156 12.609375 -8.828125 C 12.609375 -7.753906 12.367188 -6.847656 11.890625 -6.109375 C 11.410156 -5.367188 10.722656 -4.828125 9.828125 -4.484375 L 12.828125 0 Z M 4.015625 -6.078125 L 7.203125 -6.078125 C 9.367188 -6.078125 10.453125 -6.976562 10.453125 -8.78125 C 10.453125 -10.507812 9.367188 -11.375 7.203125 -11.375 L 4.015625 -11.375 Z M 4.015625 -6.078125 "/></g></g></g><g fill="rgb(100%, 50.979614%, 50.979614%)" fill-opacity="1"><g transform="translate(216.774985, 307.548642)"><g/></g></g><g fill="rgb(100%, 50.979614%, 50.979614%)" fill-opacity="1"><g transform="translate(226.77236, 307.548642)"><g><path d="M 13.390625 0 L 11.171875 0 L 4.015625 -9.609375 L 4.015625 0 L 1.765625 0 L 1.765625 -13.40625 L 3.984375 -13.40625 L 11.171875 -3.78125 L 11.171875 -13.40625 L 13.390625 -13.40625 Z M 13.390625 0 "/></g></g></g><g fill="rgb(100%, 50.979614%, 50.979614%)" fill-opacity="1"><g transform="translate(246.995019, 307.548642)"><g><path d="M 10.421875 -3.03125 L 3.65625 -3.03125 L 2.375 0 L 0.015625 0 L 5.9375 -13.40625 L 8.25 -13.40625 L 14.125 0 L 11.703125 0 Z M 9.5625 -5.03125 L 7.03125 -11 L 4.5 -5.03125 Z M 9.5625 -5.03125 "/></g></g></g><g fill="rgb(100%, 50.979614%, 50.979614%)" fill-opacity="1"><g transform="translate(266.183669, 307.548642)"><g><path d="M 10.921875 -11.375 L 6.671875 -11.375 L 6.671875 0 L 4.40625 0 L 4.40625 -11.375 L 0.171875 -11.375 L 0.171875 -13.40625 L 10.921875 -13.40625 Z M 10.921875 -11.375 "/></g></g></g><g fill="rgb(100%, 50.979614%, 50.979614%)" fill-opacity="1"><g transform="translate(282.327712, 307.548642)"><g><path d="M 13.15625 -13.40625 L 13.15625 -5.5625 C 13.15625 -3.8125 12.640625 -2.429688 11.609375 -1.421875 C 10.578125 -0.410156 9.148438 0.09375 7.328125 0.09375 C 5.515625 0.09375 4.085938 -0.410156 3.046875 -1.421875 C 2.015625 -2.429688 1.5 -3.8125 1.5 -5.5625 L 1.5 -13.40625 L 3.75 -13.40625 L 3.75 -5.5625 C 3.75 -4.4375 4.070312 -3.550781 4.71875 -2.90625 C 5.363281 -2.257812 6.242188 -1.9375 7.359375 -1.9375 C 8.453125 -1.9375 9.316406 -2.253906 9.953125 -2.890625 C 10.585938 -3.523438 10.90625 -4.414062 10.90625 -5.5625 L 10.90625 -13.40625 Z M 13.15625 -13.40625 "/></g></g></g><g fill="rgb(100%, 50.979614%, 50.979614%)" fill-opacity="1"><g transform="translate(302.014226, 307.548642)"><g><path d="M 10.265625 0 L 7.8125 -4.0625 C 7.6875 -4.050781 7.484375 -4.046875 7.203125 -4.046875 L 4.015625 -4.046875 L 4.015625 0 L 1.765625 0 L 1.765625 -13.40625 L 7.203125 -13.40625 C 8.910156 -13.40625 10.238281 -13.003906 11.1875 -12.203125 C 12.132812 -11.410156 12.609375 -10.285156 12.609375 -8.828125 C 12.609375 -7.753906 12.367188 -6.847656 11.890625 -6.109375 C 11.410156 -5.367188 10.722656 -4.828125 9.828125 -4.484375 L 12.828125 0 Z M 4.015625 -6.078125 L 7.203125 -6.078125 C 9.367188 -6.078125 10.453125 -6.976562 10.453125 -8.78125 C 10.453125 -10.507812 9.367188 -11.375 7.203125 -11.375 L 4.015625 -11.375 Z M 4.015625 -6.078125 "/></g></g></g><g fill="rgb(100%, 50.979614%, 50.979614%)" fill-opacity="1"><g transform="translate(320.915653, 307.548642)"><g><path d="M 11.34375 -11.375 L 4.015625 -11.375 L 4.015625 -7.765625 L 10.578125 -7.765625 L 10.578125 -5.734375 L 4.015625 -5.734375 L 4.015625 -2.03125 L 11.578125 -2.03125 L 11.578125 0 L 1.765625 0 L 1.765625 -13.40625 L 11.34375 -13.40625 Z M 11.34375 -11.375 "/></g></g></g><g fill="rgb(100%, 50.979614%, 50.979614%)" fill-opacity="1"><g transform="translate(113.727755, 333.048641)"><g><path d="M 10.9375 -6.59375 L 12.90625 -6.59375 L 12.90625 -1.640625 C 12.21875 -1.117188 11.40625 -0.695312 10.46875 -0.375 C 9.53125 -0.0625 8.609375 0.09375 7.703125 0.09375 C 5.722656 0.09375 4.050781 -0.554688 2.6875 -1.859375 C 1.332031 -3.171875 0.65625 -4.785156 0.65625 -6.703125 C 0.65625 -8.617188 1.34375 -10.222656 2.71875 -11.515625 C 4.09375 -12.816406 5.796875 -13.46875 7.828125 -13.46875 C 8.773438 -13.46875 9.703125 -13.296875 10.609375 -12.953125 C 11.523438 -12.617188 12.316406 -12.164062 12.984375 -11.59375 L 11.703125 -9.921875 C 10.609375 -10.941406 9.316406 -11.453125 7.828125 -11.453125 C 6.460938 -11.453125 5.304688 -10.992188 4.359375 -10.078125 C 3.421875 -9.160156 2.953125 -8.035156 2.953125 -6.703125 C 2.953125 -5.359375 3.425781 -4.226562 4.375 -3.3125 C 5.320312 -2.394531 6.484375 -1.9375 7.859375 -1.9375 C 8.890625 -1.9375 9.914062 -2.242188 10.9375 -2.859375 Z M 10.9375 -6.59375 "/></g></g></g><g fill="rgb(100%, 50.979614%, 50.979614%)" fill-opacity="1"><g transform="translate(133.127037, 333.048641)"><g><path d="M 13.15625 -13.40625 L 13.15625 -5.5625 C 13.15625 -3.8125 12.640625 -2.429688 11.609375 -1.421875 C 10.578125 -0.410156 9.148438 0.09375 7.328125 0.09375 C 5.515625 0.09375 4.085938 -0.410156 3.046875 -1.421875 C 2.015625 -2.429688 1.5 -3.8125 1.5 -5.5625 L 1.5 -13.40625 L 3.75 -13.40625 L 3.75 -5.5625 C 3.75 -4.4375 4.070312 -3.550781 4.71875 -2.90625 C 5.363281 -2.257812 6.242188 -1.9375 7.359375 -1.9375 C 8.453125 -1.9375 9.316406 -2.253906 9.953125 -2.890625 C 10.585938 -3.523438 10.90625 -4.414062 10.90625 -5.5625 L 10.90625 -13.40625 Z M 13.15625 -13.40625 "/></g></g></g><g fill="rgb(100%, 50.979614%, 50.979614%)" fill-opacity="1"><g transform="translate(152.813543, 333.048641)"><g><path d="M 4.015625 0 L 1.765625 0 L 1.765625 -13.40625 L 4.015625 -13.40625 Z M 4.015625 0 "/></g></g></g><g fill="rgb(100%, 50.979614%, 50.979614%)" fill-opacity="1"><g transform="translate(163.65346, 333.048641)"><g><path d="M 4.015625 -2.046875 L 9.828125 -2.046875 L 9.828125 0 L 1.765625 0 L 1.765625 -13.40625 L 4.015625 -13.40625 Z M 4.015625 -2.046875 "/></g></g></g><g fill="rgb(100%, 50.979614%, 50.979614%)" fill-opacity="1"><g transform="translate(178.935819, 333.048641)"><g><path d="M 1.765625 -13.40625 L 7.265625 -13.40625 C 9.265625 -13.40625 10.914062 -12.769531 12.21875 -11.5 C 13.53125 -10.238281 14.1875 -8.640625 14.1875 -6.703125 C 14.1875 -4.765625 13.53125 -3.160156 12.21875 -1.890625 C 10.90625 -0.628906 9.234375 0 7.203125 0 L 1.765625 0 Z M 4.015625 -11.375 L 4.015625 -2.03125 L 7.3125 -2.03125 C 8.632812 -2.03125 9.734375 -2.46875 10.609375 -3.34375 C 11.484375 -4.21875 11.921875 -5.332031 11.921875 -6.6875 C 11.921875 -8.039062 11.46875 -9.160156 10.5625 -10.046875 C 9.664062 -10.929688 8.550781 -11.375 7.21875 -11.375 Z M 4.015625 -11.375 "/></g></g></g><g fill="rgb(100%, 50.979614%, 50.979614%)" fill-opacity="1"><g transform="translate(198.832962, 333.048641)"><g/></g></g><g fill="rgb(100%, 50.979614%, 50.979614%)" fill-opacity="1"><g transform="translate(208.830337, 333.048641)"><g><path d="M 7.265625 -4.46875 L 7.265625 0 L 5.015625 0 L 5.015625 -4.390625 L 0.015625 -13.40625 L 2.296875 -13.40625 L 6.125 -6.875 L 9.890625 -13.40625 L 12.1875 -13.40625 Z M 7.265625 -4.46875 "/></g></g></g><g fill="rgb(100%, 50.979614%, 50.979614%)" fill-opacity="1"><g transform="translate(226.084982, 333.048641)"><g><path d="M 2.703125 -11.515625 C 4.066406 -12.816406 5.75 -13.46875 7.75 -13.46875 C 9.757812 -13.46875 11.445312 -12.816406 12.8125 -11.515625 C 14.175781 -10.222656 14.859375 -8.617188 14.859375 -6.703125 C 14.859375 -4.785156 14.175781 -3.171875 12.8125 -1.859375 C 11.445312 -0.554688 9.757812 0.09375 7.75 0.09375 C 5.75 0.09375 4.066406 -0.554688 2.703125 -1.859375 C 1.335938 -3.171875 0.65625 -4.785156 0.65625 -6.703125 C 0.65625 -8.617188 1.335938 -10.222656 2.703125 -11.515625 Z M 7.78125 -11.4375 C 6.445312 -11.4375 5.304688 -10.976562 4.359375 -10.0625 C 3.421875 -9.15625 2.953125 -8.035156 2.953125 -6.703125 C 2.953125 -5.378906 3.425781 -4.253906 4.375 -3.328125 C 5.320312 -2.398438 6.453125 -1.9375 7.765625 -1.9375 C 9.085938 -1.9375 10.210938 -2.398438 11.140625 -3.328125 C 12.078125 -4.253906 12.546875 -5.378906 12.546875 -6.703125 C 12.546875 -8.035156 12.078125 -9.15625 11.140625 -10.0625 C 10.210938 -10.976562 9.09375 -11.4375 7.78125 -11.4375 Z M 7.78125 -11.4375 "/></g></g></g><g fill="rgb(100%, 50.979614%, 50.979614%)" fill-opacity="1"><g transform="translate(246.652314, 333.048641)"><g><path d="M 13.15625 -13.40625 L 13.15625 -5.5625 C 13.15625 -3.8125 12.640625 -2.429688 11.609375 -1.421875 C 10.578125 -0.410156 9.148438 0.09375 7.328125 0.09375 C 5.515625 0.09375 4.085938 -0.410156 3.046875 -1.421875 C 2.015625 -2.429688 1.5 -3.8125 1.5 -5.5625 L 1.5 -13.40625 L 3.75 -13.40625 L 3.75 -5.5625 C 3.75 -4.4375 4.070312 -3.550781 4.71875 -2.90625 C 5.363281 -2.257812 6.242188 -1.9375 7.359375 -1.9375 C 8.453125 -1.9375 9.316406 -2.253906 9.953125 -2.890625 C 10.585938 -3.523438 10.90625 -4.414062 10.90625 -5.5625 L 10.90625 -13.40625 Z M 13.15625 -13.40625 "/></g></g></g><path fill="rgb(100%, 100%, 100%)" d="M 198.238281 181.917969 C 198.074219 181.640625 197.292969 181.109375 196.421875 180.160156 C 195.546875 179.207031 194.585938 177.839844 193.488281 176.929688 C 192.398438 176.015625 191.167969 175.574219 190.042969 175.601562 C 188.925781 175.636719 187.917969 176.125 186.246094 176.152344 C 184.585938 176.1875 182.25 175.746094 180.539062 176.203125 C 178.832031 176.664062 177.757812 178.027344 176.527344 179 C 175.300781 179.976562 173.917969 180.5625 173.078125 180.949219 C 172.234375 181.335938 171.929688 181.527344 172.308594 182.28125 C 172.675781 183.027344 173.730469 184.320312 175.328125 185.441406 C 176.933594 186.550781 179.082031 187.476562 181 188.191406 C 182.921875 188.902344 184.597656 189.40625 186.890625 189.40625 C 189.179688 189.40625 192.089844 188.902344 194.214844 187.800781 C 196.339844 186.703125 197.6875 185.003906 198.199219 184.023438 C 198.707031 183.042969 198.382812 182.78125 197.464844 182.8125 C 196.546875 182.84375 195.042969 183.171875 192.847656 183.402344 C 190.660156 183.628906 187.78125 183.746094 184.769531 183.574219 C 181.753906 183.394531 178.597656 182.925781 177.496094 182.601562 C 176.382812 182.28125 177.328125 182.125 178.605469 181.777344 C 179.882812 181.4375 181.5 180.921875 182.714844 180.75 C 183.921875 180.570312 184.734375 180.734375 185.757812 180.804688 C 186.777344 180.867188 188.007812 180.84375 188.84375 180.769531 C 189.679688 180.691406 190.121094 180.570312 191.183594 180.816406 C 192.246094 181.066406 193.9375 181.6875 195.089844 181.984375 C 196.242188 182.289062 196.871094 182.261719 197.410156 182.242188 C 197.949219 182.214844 198.40625 182.191406 198.238281 181.917969 " fill-opacity="1" fill-rule="evenodd"/><path stroke-linecap="round" transform="matrix(0.176724, 0, 0, -0.176871, 65.240376, 242.60493)" fill="none" stroke-linejoin="round" d="M 739.490207 536.516091 C 745.281382 534.108789 751.09466 531.723572 756.885835 529.60338 C 762.699114 527.461102 768.468185 525.628019 775.895034 524.76669 C 783.321884 523.949533 792.340202 524.059959 800.010193 526.135981 C 807.613873 528.212003 813.869226 532.143194 819.83723 537.112395 C 825.849442 542.037425 831.684824 547.978382 833.077359 550.518196 C 834.491997 553.035924 831.530098 552.218767 827.065147 550.385683 C 822.622299 548.5526 816.676398 545.703592 807.702288 543.936765 C 798.706074 542.192023 786.725857 541.485292 779.033763 544.091362 C 771.297461 546.719517 767.893488 552.660473 766.766198 557.03337 C 765.661012 561.406268 766.766198 564.211106 771.164838 566.13253 C 775.541375 568.053955 783.167158 569.02571 789.444615 569.091966 C 795.744175 569.180307 800.695409 568.318979 803.171025 564.719068 C 805.668746 561.141244 805.668746 554.758581 802.618432 550.076489 C 799.568119 545.438568 793.467492 542.457047 786.283783 542.390791 C 779.055866 542.302449 770.744868 545.151458 763.671677 546.410322 C 756.598487 547.691272 750.829416 547.426248 745.436108 546.123213 C 740.0428 544.842263 735.113671 542.611644 735.46733 544.798093 C 735.82099 546.984541 741.479542 553.632228 747.115991 558.292235 C 752.774543 562.974327 758.433096 565.668738 766.567265 567.258882 C 774.67933 568.915283 785.311219 569.445331 793.909566 568.274808 C 802.530017 567.060114 809.183237 564.100679 816.963747 561.494609 C 824.722152 558.866454 833.629952 556.591664 840.084238 557.03337 C 846.51642 557.452992 850.472986 560.544939 850.627712 561.25167 C 850.738231 561.958401 847.069013 560.279915 844.0187 560.787878 C 840.968387 561.25167 838.603289 563.946082 834.580412 567.965613 C 830.557534 571.985145 824.876878 577.373968 818.444696 581.216817 C 812.034617 584.99341 804.8067 587.268199 796.517805 587.489053 C 788.273118 587.687821 778.945348 585.854738 770.125964 582.033974 C 761.240268 578.235296 752.929269 572.426852 746.563398 565.779165 C 740.197526 559.131478 735.82099 551.644548 735.224189 549.966062 C 734.6937 548.243406 737.920843 552.351279 738.009258 562.311766 C 738.075569 572.29434 734.958945 588.129528 733.831655 598.310869 C 732.704365 608.470125 733.544307 612.997619 735.04736 613.439326 C 736.528309 613.858948 738.628162 610.192781 738.075569 606.283676 C 737.500873 602.418742 734.251626 598.310869 730.781342 598.001674 C 727.333161 597.73665 723.663944 601.29239 722.227202 605.930311 C 720.812564 610.590317 721.674609 616.398762 728.39414 621.632987 C 735.113671 626.867212 747.690688 631.527219 766.47885 635.127129 C 785.311219 638.749125 810.310527 641.288938 827.507221 640.692634 C 844.681812 640.162586 854.031685 636.474335 860.861735 628.01565 C 867.735992 619.490709 872.112528 606.21742 871.405209 603.743862 C 870.69789 601.29239 864.884612 609.618562 857.391451 614.499422 C 849.876186 619.380282 840.703142 620.771659 826.711487 620.705403 C 812.741936 620.617061 793.909566 619.093173 777.154947 615.360751 C 760.400327 611.606243 745.701353 605.665287 735.577849 598.090016 C 725.498553 590.514744 719.950519 581.327243 715.242426 567.545992 C 710.51223 553.786826 706.555664 535.389738 705.980968 518.626966 C 705.428375 501.864194 708.235547 486.757822 713.120469 475.582641 C 718.005391 464.407459 724.923856 457.229724 729.609844 450.228671 C 734.251626 443.205534 736.638827 436.44742 737.036694 430.705232 C 737.390354 424.963044 735.666264 420.303037 732.505432 417.144834 C 729.300392 413.94246 724.658611 412.263974 720.19366 411.689755 C 715.750812 411.137622 711.484794 411.689755 711.727935 412.617339 C 711.904765 413.522838 716.590753 414.803788 719.420029 416.990236 C 722.227202 419.176685 723.243973 422.312803 722.227202 424.69802 C 721.254638 427.105322 718.270636 428.783807 714.424589 428.01082 C 710.51223 427.215748 705.693619 423.991289 701.007631 420.899341 C 696.365849 417.763223 691.834587 414.803788 687.546465 415.422177 C 683.23624 416.062652 679.102844 420.303037 675.323108 426.796127 C 671.47706 433.311302 667.962569 442.079181 668.360436 447.026297 C 668.780407 451.995499 673.201151 453.121851 679.876474 453.475216 C 686.596005 453.828582 695.65853 453.40896 702.466476 452.105925 C 709.208111 450.869146 713.739373 448.704783 713.739373 444.420227 C 713.739373 440.113586 709.208111 433.598411 703.85901 428.01082 C 698.465703 422.42323 692.276661 417.763223 687.104391 416.570615 C 681.954224 415.355921 677.842932 417.608626 673.665329 421.009768 C 669.487726 424.41091 665.265915 428.938405 660.734652 430.970256 C 656.20339 433.046278 651.406883 432.626656 649.063888 430.904 C 646.765101 429.225514 646.87562 426.243993 649.307029 423.350814 C 651.672127 420.47972 656.358116 417.608626 656.446531 415.576775 C 656.490738 413.522838 651.981579 412.263974 647.185072 414.538764 C 642.344357 416.747298 637.260502 422.577827 635.005922 427.922479 C 632.729239 433.311302 633.326039 438.280503 636.221627 441.593304 C 639.09511 444.92819 644.333692 446.606676 649.727 446.606676 C 655.0761 446.606676 660.579926 444.92819 664.757529 439.340599 C 668.935133 433.753009 671.764409 424.256313 672.891699 416.018481 C 674.018988 407.736479 673.466395 400.669171 672.95801 394.794471 C 672.471728 388.941856 672.073861 384.259764 674.969448 381.211987 C 677.842932 378.164211 684.054077 376.750749 688.784273 377.612077 C 693.558677 378.473405 696.807924 381.565353 697.935213 386.512469 C 699.062503 391.48167 698.045732 398.239784 695.503804 401.883865 C 692.961876 405.461689 688.872688 405.903396 685.977101 404.070313 C 683.081514 402.23723 681.357423 398.129357 680.672208 393.447265 C 679.964889 388.787259 680.230134 383.553033 683.523588 380.306488 C 686.750731 377.059944 692.961876 375.778994 698.001525 376.331127 C 702.996965 376.905346 706.843013 379.290563 713.054158 376.750749 C 719.265303 374.210935 727.885754 366.724005 734.804219 359.457928 C 741.766891 352.191852 746.983369 345.124544 751.603046 342.783498 C 756.244827 340.464537 760.311912 342.893924 760.510845 341.568804 C 760.731882 340.199513 757.106872 335.075714 752.774543 329.421868 C 748.398007 323.745935 743.314151 317.539955 735.666264 312.217389 C 728.04048 306.916907 717.850665 302.54401 705.848345 300.423818 C 693.823922 298.32571 679.964889 298.436137 667.034213 301.21889 C 654.103536 303.935386 642.079113 309.346294 633.392351 314.536349 C 624.727692 319.682233 619.378592 324.695605 614.338944 329.686892 C 609.343503 334.678178 604.657514 339.735721 605.121692 342.385961 C 605.630078 345.080373 611.244423 345.345397 616.372486 347.421419 C 621.456342 349.497441 625.987604 353.318204 630.540971 357.381907 C 635.160648 361.48978 639.802429 365.906847 644.267381 369.418416 C 648.710229 372.974156 652.976247 375.624397 658.900044 376.640322 C 664.845944 377.612077 672.471728 376.905346 674.262129 376.993688 C 676.008323 377.059944 671.919135 377.899186 668.780407 375.977762 C 665.707989 374.056337 663.563929 369.418416 664.249144 364.75841 C 665.00067 360.076318 668.515162 355.438397 673.90847 352.898583 C 679.25757 350.314598 686.485486 349.917062 692.188246 350.623793 C 697.935213 351.330524 702.157024 353.163607 703.991633 357.028541 C 705.848345 360.937646 705.273649 366.878602 703.947425 368.446661 C 702.576995 369.97055 700.477141 367.143626 699.968756 363.389119 C 699.482474 359.656697 700.631867 354.99669 704.345292 352.191852 C 708.080821 349.342843 714.446692 348.349003 720.591527 346.449664 C 726.714257 344.528239 732.660158 341.679231 737.766117 340.906244 C 742.89418 340.155342 747.270717 341.436292 748.353799 341.281695 C 749.458985 341.127097 747.314924 339.448611 742.29738 337.814296 C 737.346147 336.179981 729.499326 334.567751 720.083141 333.242631 C 710.666956 331.961682 699.615096 330.967841 688.784273 331.299121 C 677.931347 331.608316 667.299457 333.242631 658.236932 334.413154 C 649.174407 335.627848 641.747557 336.400835 632.97238 338.07932 C 624.130892 339.801977 614.029492 342.430132 614.559981 342.938095 C 615.156781 343.401887 626.407575 341.789657 636.177419 342.540559 C 645.903056 343.29146 654.103536 346.361322 660.380993 348.989478 C 666.680553 351.595548 671.05709 353.71574 673.90847 352.236023 C 676.715642 350.73422 677.997658 345.654592 680.318548 341.215439 C 682.661543 336.7542 686.065516 332.933436 687.900125 326.572859 C 689.734733 320.234367 689.999978 311.333975 687.745398 304.377093 C 685.468715 297.464382 680.672208 292.495181 677.842932 280.70161 C 675.035759 268.908039 674.173714 250.223842 676.649331 239.070746 C 679.102844 227.895564 684.916122 224.229398 696.984754 225.620775 C 709.097592 227.078407 727.465784 233.549411 744.994034 244.304971 C 762.544388 255.038446 779.210593 270.034391 793.356973 286.797163 C 807.503354 303.559936 819.0636 322.06745 830.314394 345.146629 C 841.565187 368.292064 852.462321 395.987079 860.508075 424.256313 C 868.553829 452.547632 873.792411 481.41317 876.40065 508.953588 C 879.030993 536.516091 879.030993 562.819729 884.689545 575.783823 C 890.348098 588.747917 901.70941 588.350381 902.615662 575.27586 C 903.544018 562.179254 894.061522 536.449835 889.994438 519.22327 C 885.927353 502.040877 887.386199 493.405509 887.739859 485.984835 C 888.093518 478.564161 887.386199 472.336096 885.662109 466.947273 C 883.982226 461.602621 881.285572 457.075127 877.461629 453.40896 C 873.681893 449.720709 868.708555 446.8717 868.79697 451.332938 C 868.863282 455.816262 873.947137 467.543577 876.489065 484.218008 C 879.030993 500.892439 879.030993 522.536071 879.030993 544.135533 " stroke="rgb(13.729858%, 12.159729%, 12.548828%)" stroke-width="5.669" stroke-opacity="1" stroke-miterlimit="22.926001"/><g clip-path="url(#id3)"><path stroke-linecap="round" transform="matrix(0.176724, 0, 0, -0.176871, 65.240376, 242.60493)" fill="none" stroke-linejoin="round" d="M 670.592912 225.863713 C 660.668341 225.002385 650.787978 224.141057 635.779552 228.668551 C 620.815334 233.196046 600.745156 243.090278 584.056847 256.959871 C 567.390642 270.829463 554.062099 288.630247 542.347127 303.758704 C 530.587948 318.865076 520.420237 331.321207 520.97283 330.040257 C 521.56963 328.781393 532.842528 313.785448 538.081109 296.956419 C 543.319691 280.149476 542.501853 261.487365 536.135982 241.124683 C 529.77011 220.784085 517.900413 198.720832 495.398826 173.830655 C 472.919342 148.940478 439.852177 121.245463 404.22098 104.968568 C 368.589783 88.713759 330.438762 83.899155 309.92651 67.776857 C 289.414257 51.632475 286.607085 24.224569 288.706938 13.049387 C 290.828895 1.874206 297.879982 6.998005 297.769464 26.477273 C 297.614738 46.022798 290.276302 79.967964 288.552212 116.14375 C 286.87233 152.34162 290.828895 190.792195 299.64828 216.963322 C 308.467664 243.134448 322.149867 256.981956 344.761973 272.110413 C 367.374078 287.216785 398.938191 303.626192 412.885638 322.155791 C 426.833086 340.663305 423.163868 361.291012 424.843751 381.786206 C 426.567841 402.303486 433.641031 422.666168 421.74923 423.483326 C 409.879532 424.344654 379.066946 405.704628 359.527258 383.906399 C 340.031777 362.15234 331.831296 337.262163 327.255826 316.987822 C 322.724564 296.757651 321.796207 281.143317 329.886169 274.098094 C 337.976131 267.074956 355.08441 268.643015 376.016633 274.053923 C 396.948856 279.486916 421.682919 288.829015 440.979467 296.05092 C 460.276014 303.250741 474.135047 308.352454 484.457484 316.126493 C 494.757818 323.900533 501.565764 334.368983 512.374483 344.064447 C 523.205306 353.71574 538.036902 362.616132 548.624584 371.251499 C 559.212266 379.886867 565.578137 388.235125 573.314439 400.028696 C 581.006534 411.844352 590.046955 427.105322 594.799255 437.264577 C 599.529451 447.468004 599.971526 452.547632 596.832797 457.075127 C 593.716173 461.602621 587.062953 465.555897 577.801494 463.369448 C 568.562139 461.160914 556.670338 452.812656 547.497294 443.978521 C 538.32425 435.16647 531.803653 425.824372 523.82421 417.343602 C 515.822663 408.862832 506.362271 401.221304 494.227328 397.069261 C 482.026075 392.895132 467.194479 392.188401 458.640339 391.062048 C 450.086199 389.913611 447.809516 388.367637 447.102197 391.415414 C 446.416982 394.463191 447.256923 402.060547 454.882707 415.355921 C 462.530594 428.673381 476.942219 447.622601 490.734941 460.387927 C 504.527662 473.197424 517.657272 479.845111 530.12377 484.924739 C 542.546061 490.004367 554.30524 493.560106 573.955447 500.539074 C 593.583551 507.540126 621.168993 518.008577 638.67514 527.814467 C 656.20339 537.664528 663.718655 546.829944 667.034213 555.200287 C 670.349771 563.52646 669.531933 571.01339 667.299457 573.354436 C 665.111189 575.695482 661.596698 572.846473 651.650023 569.599928 C 641.637038 566.375469 625.280285 562.687217 607.221546 558.60143 C 589.229118 554.493557 569.57891 549.966062 552.183283 545.703592 C 534.765551 541.485292 519.646607 537.509931 507.423249 533.468314 C 495.199892 529.448782 485.850018 525.340909 477.804264 522.381474 C 469.736406 519.422038 462.972668 517.588955 461.049644 515.888384 C 459.148725 514.187813 462.110623 512.619754 466.553471 515.579189 C 471.018422 518.56071 476.942219 526.04764 486.446819 533.556655 C 495.907211 541.06567 508.904199 548.5526 519.094014 554.05185 C 529.261725 559.573184 536.60016 563.084753 551.409652 566.485896 C 566.174938 569.887038 588.367073 573.133583 603.795469 576.799749 C 619.179659 580.510086 627.822213 584.617959 633.74601 591.088963 C 639.691911 597.626223 642.919054 606.526615 642.587498 610.391549 C 642.233839 614.300654 638.277273 613.174302 629.148436 613.085961 C 620.041704 612.997619 605.740597 613.99146 593.318306 614.146057 C 582.266446 614.256484 572.651328 613.70435 558.350221 611.009939 M 505.588641 597.118261 C 500.040607 595.241007 494.580988 593.231241 489.342406 591.177304 C 484.921662 589.410477 480.655644 587.577394 476.566456 585.70014 M 454.219595 574.105337 C 448.317902 570.660025 443.07932 567.236797 438.702783 564.100679 C 426.921501 555.619909 420.9756 548.817624 416.179093 545.968616 C 411.360482 543.163778 407.691264 544.29013 401.590637 546.366152 C 395.512114 548.398003 387.024286 551.357438 379.177465 552.417535 C 371.374852 553.477631 364.146935 552.660473 363.085957 555.399055 C 362.024978 558.159723 367.108834 564.5203 371.905341 571.167987 C 376.723952 577.815674 381.255215 584.728386 384.305528 588.195784 C 387.311634 591.641097 388.858894 591.641097 392.970186 593.717118 C 397.059375 595.771055 403.712594 599.834757 406.011381 602.308315 C 408.310168 604.715617 406.29873 605.510689 407.890197 605.157324 C 409.525873 604.803959 414.808662 603.324241 421.373467 598.200442 C 427.894064 593.076644 435.674574 584.286679 444.228713 578.897856 C 452.782853 573.486948 462.110623 571.455097 469.095399 571.455097 C 476.102278 571.455097 480.788267 573.486948 480.191466 578.124869 C 479.638873 582.76279 473.869802 589.962611 465.35987 598.35504 C 456.872041 606.791639 445.709663 616.398762 438.791198 623.201046 C 431.828526 629.95916 429.17608 633.934521 423.429113 634.574995 C 417.726353 635.193385 408.951176 632.498974 397.656175 631.416792 C 386.33907 630.268354 372.457934 630.66589 358.134723 622.339718 C 343.789409 613.99146 328.935709 596.875322 313.662038 577.373968 C 298.388368 557.850528 282.694726 535.941872 270.89134 517.036822 C 259.110057 498.087601 251.174821 482.119901 243.283793 466.130115 " stroke="rgb(13.729858%, 12.159729%, 12.548828%)" stroke-width="5.669" stroke-opacity="1" stroke-miterlimit="22.926001"/></g><path stroke-linecap="round" transform="matrix(0.176724, 0, 0, -0.176871, 65.240376, 242.60493)" fill="none" stroke-linejoin="round" d="M 346.596581 613.99146 C 350.707873 619.490709 354.774958 624.967873 367.26356 627.662284 C 379.774265 630.312525 400.706488 630.202098 420.312488 630.113757 C 440.006903 630.047501 458.352991 630.047501 473.471935 631.328451 C 488.635087 632.587315 500.504785 635.127129 510.186214 633.868265 C 519.84554 632.587315 527.338701 627.507687 537.528516 621.831755 C 547.740435 616.177908 560.582696 609.971928 568.363206 606.018652 C 576.143715 602.065377 578.818265 600.34272 579.26034 597.383285 C 579.658207 594.423849 577.801494 590.20555 573.314439 586.804407 C 568.783177 583.403265 561.55526 580.863451 554.216825 581.481841 C 546.87839 582.10023 539.385229 585.943079 530.742674 589.454648 C 522.10012 593.010388 512.374483 596.256932 506.561204 596.985749 C 500.792133 597.73665 498.979628 595.947738 492.193786 593.672948 C 487.728835 592.19323 481.16403 590.514744 473.980321 589.057112 M 436.00613 585.125922 C 434.679906 585.125922 433.353683 585.081751 432.137978 585.081751 C 423.871187 585.081751 418.080012 585.501372 413.040364 585.435116 C 408.044923 585.346775 403.778906 584.794642 399.181332 581.636438 C 394.605862 578.434064 389.654628 572.647705 383.819246 568.760685 C 378.005968 564.85158 371.374852 562.819729 364.677425 560.787878 " stroke="rgb(13.729858%, 12.159729%, 12.548828%)" stroke-width="5.669" stroke-opacity="1" stroke-miterlimit="22.926001"/><path stroke-linecap="round" transform="matrix(0.176724, 0, 0, -0.176871, 65.240376, 242.60493)" fill="none" stroke-linejoin="round" d="M 793.356973 286.797163 C 801.911113 255.148873 810.465253 223.544753 835.928738 191.76395 C 861.436432 159.961062 903.831367 128.003577 935.771242 106.249518 C 967.733222 84.495459 989.218038 72.900656 1007.740955 63.823582 C 1026.285977 54.812763 1041.824892 48.275503 1057.385911 41.804499 " stroke="rgb(13.729858%, 12.159729%, 12.548828%)" stroke-width="5.669" stroke-opacity="1" stroke-miterlimit="22.926001"/><path stroke-linecap="round" transform="matrix(0.176724, 0, 0, -0.176871, 65.240376, 242.60493)" fill="none" stroke-linejoin="round" d="M 886.015768 299.452063 L 890.591238 284.654886 L 905.422835 280.08322 L 890.591238 275.511555 L 886.015768 260.670207 L 881.484506 275.511555 L 866.630806 280.08322 L 881.484506 284.654886 Z M 886.015768 299.452063 " stroke="rgb(13.729858%, 12.159729%, 12.548828%)" stroke-width="5.669" stroke-opacity="1" stroke-miterlimit="22.926001"/><path stroke-linecap="round" transform="matrix(0.176724, 0, 0, -0.176871, 65.240376, 242.60493)" fill="none" stroke-linejoin="round" d="M 950.978602 209.0126 L 955.554072 194.171252 L 970.385668 189.599587 L 955.554072 185.050007 L 950.978602 170.186574 L 946.403132 185.050007 L 931.593639 189.599587 L 946.403132 194.171252 Z M 950.978602 209.0126 " stroke="rgb(13.729858%, 12.159729%, 12.548828%)" stroke-width="5.669" stroke-opacity="1" stroke-miterlimit="22.926001"/><path stroke-linecap="round" transform="matrix(0.176724, 0, 0, -0.176871, 65.240376, 242.60493)" fill="none" stroke-linejoin="round" d="M 960.461098 414.339996 L 965.036568 399.498648 L 979.890268 394.971153 L 965.036568 390.399488 L 960.461098 375.536055 L 955.907732 390.399488 L 941.054032 394.971153 L 955.907732 399.498648 Z M 960.461098 414.339996 " stroke="rgb(13.729858%, 12.159729%, 12.548828%)" stroke-width="5.669" stroke-opacity="1" stroke-miterlimit="22.926001"/><path stroke-linecap="round" transform="matrix(0.176724, 0, 0, -0.176871, 65.240376, 242.60493)" fill="none" stroke-linejoin="round" d="M 301.924963 675.985006 L 306.456226 661.143658 L 321.287822 656.594078 L 306.456226 652.022413 L 301.924963 637.181065 L 297.349493 652.022413 L 282.495793 656.594078 L 297.349493 661.143658 Z M 301.924963 675.985006 " stroke="rgb(13.729858%, 12.159729%, 12.548828%)" stroke-width="5.669" stroke-opacity="1" stroke-miterlimit="22.926001"/><path fill="rgb(13.729858%, 12.159729%, 12.548828%)" d="M 198.722656 87.019531 L 200.703125 86.566406 L 200.480469 85.589844 L 198.5 86.042969 Z M 203.644531 85.910156 L 205.597656 85.484375 L 205.382812 84.503906 L 203.433594 84.929688 Z M 208.5 84.867188 L 210.492188 84.457031 L 210.289062 83.476562 L 208.296875 83.886719 Z M 213.449219 83.863281 L 215.402344 83.480469 L 215.210938 82.496094 L 213.253906 82.878906 Z M 218.328125 82.929688 L 220.328125 82.5625 L 220.148438 81.574219 L 218.148438 81.941406 Z M 223.289062 82.039062 L 225.246094 81.703125 L 225.078125 80.714844 L 223.121094 81.050781 Z M 228.207031 81.21875 L 230.207031 80.902344 L 230.054688 79.914062 L 228.050781 80.226562 Z M 233.164062 80.460938 L 235.113281 80.179688 L 234.972656 79.1875 L 233.023438 79.46875 Z M 238.128906 79.773438 L 240.125 79.519531 L 239.996094 78.523438 L 238 78.777344 Z M 243.058594 79.167969 L 245.070312 78.945312 L 244.960938 77.949219 L 242.945312 78.171875 Z M 248.078125 78.636719 L 250.046875 78.457031 L 249.953125 77.457031 L 247.984375 77.640625 Z M 253.011719 78.214844 L 254.992188 78.070312 L 254.921875 77.070312 L 252.941406 77.214844 Z M 257.992188 77.894531 L 260 77.800781 L 259.953125 76.796875 L 257.945312 76.890625 Z M 262.988281 77.703125 L 264.980469 77.667969 L 264.964844 76.664062 L 262.96875 76.699219 Z M 267.972656 77.667969 L 269.984375 77.703125 L 270.003906 76.703125 L 267.988281 76.664062 Z M 272.96875 77.828125 C 273.648438 77.863281 274.3125 77.910156 274.957031 77.957031 L 275.035156 76.960938 C 274.382812 76.90625 273.710938 76.863281 273.027344 76.824219 Z M 277.933594 78.25 C 278.609375 78.328125 279.265625 78.417969 279.898438 78.511719 L 280.050781 77.523438 C 279.40625 77.421875 278.738281 77.335938 278.050781 77.253906 Z M 282.824219 79.046875 C 283.496094 79.191406 284.136719 79.351562 284.742188 79.519531 L 285.011719 78.550781 C 284.382812 78.378906 283.726562 78.21875 283.035156 78.066406 Z M 287.53125 80.464844 C 288.167969 80.730469 288.75 81.011719 289.273438 81.3125 L 289.773438 80.441406 C 289.210938 80.121094 288.589844 79.820312 287.914062 79.539062 Z M 291.5 83.046875 C 291.929688 83.53125 292.25 84.046875 292.464844 84.589844 L 293.398438 84.226562 C 293.140625 83.570312 292.757812 82.953125 292.25 82.378906 Z M 292.671875 87.269531 C 292.566406 87.839844 292.371094 88.429688 292.089844 89.046875 L 293 89.464844 C 293.316406 88.777344 293.535156 88.105469 293.660156 87.453125 Z M 290.574219 91.507812 C 290.203125 91.996094 289.785156 92.496094 289.316406 93.007812 L 290.058594 93.683594 C 290.542969 93.152344 290.980469 92.628906 291.371094 92.113281 Z M 287.203125 95.109375 C 286.734375 95.53125 286.238281 95.960938 285.714844 96.398438 L 286.351562 97.171875 C 286.890625 96.726562 287.398438 96.285156 287.875 95.851562 Z M 283.359375 98.246094 C 282.84375 98.628906 282.3125 99.011719 281.757812 99.402344 L 282.335938 100.222656 C 282.894531 99.828125 283.433594 99.4375 283.957031 99.050781 Z M 279.28125 101.074219 C 278.738281 101.429688 278.179688 101.785156 277.601562 102.144531 L 278.132812 102.996094 C 278.714844 102.632812 279.277344 102.273438 279.828125 101.914062 Z M 275.042969 103.691406 L 273.292969 104.707031 L 273.796875 105.574219 L 275.546875 104.5625 Z M 270.6875 106.152344 L 268.925781 107.09375 L 269.398438 107.976562 L 271.160156 107.035156 Z M 266.261719 108.472656 L 264.472656 109.367188 L 264.921875 110.261719 L 266.710938 109.367188 Z M 261.78125 110.671875 L 259.953125 111.535156 L 260.382812 112.441406 L 262.210938 111.578125 Z M 257.242188 112.78125 L 255.410156 113.601562 L 255.820312 114.515625 L 257.652344 113.695312 Z M 252.660156 114.804688 L 250.824219 115.585938 L 251.21875 116.507812 L 253.054688 115.726562 Z M 248.046875 116.746094 L 246.203125 117.5 L 246.582031 118.425781 L 248.421875 117.675781 Z M 243.410156 118.617188 L 241.550781 119.34375 L 241.917969 120.277344 L 243.773438 119.550781 Z M 238.753906 120.414062 L 236.90625 121.109375 L 237.257812 122.050781 L 239.105469 121.355469 Z M 234.097656 122.144531 L 232.195312 122.835938 L 232.535156 123.777344 L 234.4375 123.089844 Z M 229.355469 123.84375 L 227.484375 124.492188 L 227.8125 125.441406 L 229.683594 124.789062 Z M 224.648438 125.460938 L 222.734375 126.105469 L 223.050781 127.054688 L 224.96875 126.414062 Z M 219.867188 127.050781 L 217.980469 127.660156 L 218.289062 128.613281 L 220.175781 128.003906 Z M 215.128906 128.566406 L 213.203125 129.167969 L 213.5 130.125 L 215.425781 129.523438 Z M 210.308594 130.050781 L 208.410156 130.621094 L 208.699219 131.582031 L 210.597656 131.011719 Z M 205.542969 131.46875 L 203.613281 132.027344 L 203.890625 132.992188 L 205.820312 132.433594 Z M 200.699219 132.855469 L 198.78125 133.394531 L 199.050781 134.359375 L 200.96875 133.824219 Z M 195.898438 134.183594 L 193.964844 134.703125 L 194.222656 135.671875 L 196.160156 135.148438 Z M 191.046875 135.472656 L 189.601562 135.84375 L 189.089844 135.976562 L 189.335938 136.949219 L 189.851562 136.816406 L 191.296875 136.441406 Z M 186.164062 136.71875 L 184.222656 137.199219 L 184.464844 138.171875 L 186.40625 137.691406 Z M 181.3125 137.90625 L 179.355469 138.371094 L 179.585938 139.347656 L 181.546875 138.882812 Z M 176.4375 139.050781 L 174.488281 139.492188 L 174.710938 140.46875 L 176.660156 140.027344 Z M 171.542969 140.144531 L 169.59375 140.566406 L 169.804688 141.546875 L 171.757812 141.125 Z M 166.65625 141.183594 L 164.683594 141.589844 L 164.886719 142.570312 L 166.859375 142.167969 Z M 161.757812 142.171875 L 161.078125 142.304688 L 161.269531 143.289062 L 161.949219 143.15625 Z M 114.714844 148.160156 L 112.691406 148.222656 L 112.71875 149.222656 L 114.746094 149.164062 Z M 109.703125 148.261719 L 107.71875 148.253906 L 107.714844 149.257812 L 109.699219 149.265625 Z M 104.726562 148.179688 C 104.042969 148.15625 103.375 148.125 102.71875 148.085938 L 102.660156 149.089844 C 103.324219 149.125 104 149.15625 104.691406 149.183594 Z M 99.738281 147.867188 C 99.058594 147.804688 98.398438 147.734375 97.757812 147.660156 L 97.636719 148.652344 C 98.289062 148.730469 98.957031 148.804688 99.648438 148.867188 Z M 94.808594 147.230469 C 94.132812 147.113281 93.484375 146.984375 92.863281 146.847656 L 92.648438 147.828125 C 93.285156 147.96875 93.945312 148.097656 94.636719 148.21875 Z M 90.015625 146.089844 C 89.359375 145.882812 88.746094 145.65625 88.179688 145.417969 L 87.792969 146.34375 C 88.386719 146.59375 89.027344 146.828125 89.710938 147.046875 Z M 85.625 144.042969 C 85.074219 143.652344 84.605469 143.234375 84.230469 142.796875 L 83.46875 143.449219 C 83.902344 143.953125 84.425781 144.421875 85.050781 144.859375 Z M 83.078125 140.371094 C 83.058594 140.261719 83.046875 140.152344 83.039062 140.042969 C 83 139.566406 83.035156 139.070312 83.140625 138.554688 L 82.160156 138.351562 C 82.035156 138.960938 81.996094 139.550781 82.039062 140.121094 C 82.050781 140.253906 82.066406 140.386719 82.085938 140.519531 Z M 84.203125 135.929688 C 84.507812 135.40625 84.867188 134.871094 85.289062 134.324219 L 84.496094 133.710938 C 84.050781 134.292969 83.664062 134.863281 83.335938 135.421875 Z M 87.234375 132.117188 C 87.675781 131.664062 88.152344 131.210938 88.664062 130.746094 L 87.992188 130.003906 C 87.46875 130.480469 86.976562 130.949219 86.519531 131.410156 Z M 90.933594 128.828125 C 91.4375 128.429688 91.960938 128.027344 92.511719 127.617188 L 91.914062 126.8125 C 91.355469 127.226562 90.820312 127.636719 90.308594 128.042969 Z M 94.945312 125.886719 C 95.480469 125.523438 96.035156 125.15625 96.601562 124.785156 L 96.058594 123.945312 C 95.480469 124.320312 94.921875 124.691406 94.382812 125.058594 Z M 99.101562 123.210938 C 99.664062 122.871094 100.238281 122.527344 100.824219 122.179688 L 100.320312 121.316406 C 99.726562 121.664062 99.148438 122.011719 98.582031 122.355469 Z M 103.417969 120.695312 L 105.171875 119.730469 L 104.691406 118.851562 L 102.933594 119.816406 Z M 107.828125 118.320312 L 109.59375 117.414062 L 109.136719 116.523438 L 107.371094 117.429688 Z M 112.316406 116.0625 L 114.089844 115.207031 L 113.652344 114.304688 L 111.882812 115.160156 Z M 116.8125 113.929688 L 118.644531 113.09375 L 118.230469 112.179688 L 116.398438 113.019531 Z M 121.359375 111.886719 L 123.21875 111.078125 L 122.820312 110.15625 L 120.960938 110.964844 Z M 125.96875 109.910156 L 127.8125 109.144531 L 127.429688 108.21875 L 125.582031 108.984375 Z M 130.625 108 L 132.464844 107.269531 L 132.09375 106.339844 L 130.257812 107.070312 Z M 135.253906 106.183594 L 137.148438 105.460938 L 136.789062 104.523438 L 134.894531 105.25 Z M 139.9375 104.417969 L 141.816406 103.730469 L 141.472656 102.789062 L 139.59375 103.476562 Z M 144.664062 102.703125 L 146.542969 102.039062 L 146.207031 101.09375 L 144.332031 101.757812 Z M 149.367188 101.0625 L 151.277344 100.414062 L 150.953125 99.464844 L 149.042969 100.113281 Z M 149.367188 101.0625 " fill-opacity="1" fill-rule="nonzero"/><path stroke-linecap="round" transform="matrix(0.176724, 0, 0, -0.176871, 65.240376, 242.60493)" fill="none" stroke-linejoin="round" d="M 979.801853 872.08073 L 986.057206 852.689803 L 1006.414732 852.733973 L 989.925357 840.829976 L 996.247021 821.439048 L 979.801853 833.431387 L 963.356685 821.439048 L 969.678349 840.829976 L 953.211078 852.733973 L 973.5465 852.689803 Z M 979.801853 872.08073 " stroke="rgb(13.729858%, 12.159729%, 12.548828%)" stroke-width="5.669" stroke-opacity="1" stroke-miterlimit="22.926001"/><path stroke-linecap="round" transform="matrix(0.176724, 0, 0, -0.176871, 65.240376, 242.60493)" fill="none" stroke-linejoin="round" d="M 891.762736 549.259331 C 893.044751 549.259331 894.10573 548.199235 894.10573 546.918285 C 894.10573 545.61525 893.044751 544.577239 891.762736 544.577239 C 890.458616 544.577239 889.419741 545.61525 889.419741 546.918285 C 889.419741 548.199235 890.458616 549.259331 891.762736 549.259331 Z M 891.762736 549.259331 " stroke="rgb(13.729858%, 12.159729%, 12.548828%)" stroke-width="5.669" stroke-opacity="1" stroke-miterlimit="22.926001"/><path stroke-linecap="round" transform="matrix(0.176724, 0, 0, -0.176871, 65.240376, 242.60493)" fill="none" stroke-linejoin="round" d="M 1233.950427 1054.461459 L 1241.089929 1032.265693 L 1264.453561 1032.309864 L 1245.554881 1018.594869 L 1252.782797 996.443274 L 1233.950427 1010.20244 L 1215.07385 996.443274 L 1222.345974 1018.594869 L 1203.447294 1032.309864 L 1226.766718 1032.265693 Z M 1233.950427 1054.461459 " stroke="rgb(13.729858%, 12.159729%, 12.548828%)" stroke-width="5.669" stroke-opacity="1" stroke-miterlimit="22.926001"/><path stroke-linecap="butt" transform="matrix(0.176724, 0, 0, -0.176871, 65.240376, 242.60493)" fill="none" stroke-linejoin="miter" d="M 642.344357 932.30745 C 726.006938 932.30745 793.821152 864.527544 793.821152 780.86828 C 793.821152 697.231102 726.006938 629.407026 642.344357 629.407026 C 558.70388 629.407026 490.889667 697.231102 490.889667 780.86828 C 490.889667 864.527544 558.70388 932.30745 642.344357 932.30745 Z M 642.344357 932.30745 " stroke="rgb(13.729858%, 12.159729%, 12.548828%)" stroke-width="5.669" stroke-opacity="1" stroke-miterlimit="22.926001"/><path fill="rgb(13.729858%, 12.159729%, 12.548828%)" d="M 249.949219 101.371094 L 251.042969 104.921875 L 254.589844 106.019531 L 251.042969 107.113281 L 249.949219 110.664062 L 248.851562 107.113281 L 245.304688 106.019531 L 248.851562 104.921875 L 249.949219 101.371094 " fill-opacity="1" fill-rule="evenodd"/><path stroke-linecap="butt" transform="matrix(0.176724, 0, 0, -0.176871, 65.240376, 242.60493)" fill="none" stroke-linejoin="miter" d="M 1045.184657 798.514466 L 1051.373699 778.438893 L 1071.443877 772.232913 L 1051.373699 766.049018 L 1045.184657 745.973445 L 1038.973512 766.049018 L 1018.903334 772.232913 L 1038.973512 778.438893 Z M 1045.184657 798.514466 " stroke="rgb(13.729858%, 12.159729%, 12.548828%)" stroke-width="5.669" stroke-opacity="1" stroke-miterlimit="22.926001"/><path stroke-linecap="butt" transform="matrix(0.176724, 0, 0, -0.176871, 65.240376, 242.60493)" fill="none" stroke-linejoin="miter" d="M 1109.263342 662.976741 L 1112.645211 651.956157 L 1123.674968 648.555015 L 1112.645211 645.153873 L 1109.263342 634.133289 L 1105.903577 645.153873 L 1094.851716 648.555015 L 1105.903577 651.956157 Z M 1109.263342 662.976741 " stroke="rgb(13.729858%, 12.159729%, 12.548828%)" stroke-width="5.669" stroke-opacity="1" stroke-miterlimit="22.926001"/><path fill="rgb(13.729858%, 12.159729%, 12.548828%)" d="M 121.109375 86.570312 L 122.09375 89.777344 L 125.296875 90.765625 L 122.09375 91.753906 L 121.109375 94.960938 L 120.121094 91.753906 L 116.917969 90.765625 L 120.121094 89.777344 L 121.109375 86.570312 " fill-opacity="1" fill-rule="evenodd"/><path stroke-linecap="butt" transform="matrix(0.176724, 0, 0, -0.176871, 65.240376, 242.60493)" fill="none" stroke-linejoin="miter" d="M 316.137655 882.195815 L 321.707793 864.063752 L 339.832843 858.476161 L 321.707793 852.888571 L 316.137655 834.756507 L 310.545414 852.888571 L 292.420363 858.476161 L 310.545414 864.063752 Z M 316.137655 882.195815 " stroke="rgb(13.729858%, 12.159729%, 12.548828%)" stroke-width="5.669" stroke-opacity="1" stroke-miterlimit="22.926001"/><path fill="rgb(13.729858%, 12.159729%, 12.548828%)" d="M 110.84375 174.414062 L 111.871094 177.757812 L 115.214844 178.785156 L 111.871094 179.808594 L 110.84375 183.160156 L 109.816406 179.808594 L 106.472656 178.785156 L 109.816406 177.757812 L 110.84375 174.414062 " fill-opacity="1" fill-rule="evenodd"/><path stroke-linecap="butt" transform="matrix(0.176724, 0, 0, -0.176871, 65.240376, 242.60493)" fill="none" stroke-linejoin="miter" d="M 258.049078 385.540714 L 263.862357 366.635664 L 282.783141 360.827219 L 263.862357 355.040861 L 258.049078 336.09164 L 252.2358 355.040861 L 233.315016 360.827219 L 252.2358 366.635664 Z M 258.049078 385.540714 " stroke="rgb(13.729858%, 12.159729%, 12.548828%)" stroke-width="5.669" stroke-opacity="1" stroke-miterlimit="22.926001"/><path stroke-linecap="butt" transform="matrix(0.176724, 0, 0, -0.176871, 65.240376, 242.60493)" fill="none" stroke-linejoin="miter" d="M 891.630113 973.121156 C 900.736846 973.121156 908.119489 965.744653 908.119489 956.645493 C 908.119489 947.546333 900.736846 940.191916 891.630113 940.191916 C 882.545484 940.191916 875.162842 947.546333 875.162842 956.645493 C 875.162842 965.744653 882.545484 973.121156 891.630113 973.121156 Z M 891.630113 973.121156 " stroke="rgb(13.729858%, 12.159729%, 12.548828%)" stroke-width="5.669" stroke-opacity="1" stroke-miterlimit="22.926001"/><path fill="rgb(13.729858%, 12.159729%, 12.548828%)" d="M 292.929688 79.746094 C 295.035156 79.746094 296.753906 81.460938 296.753906 83.574219 C 296.753906 85.6875 295.035156 87.402344 292.929688 87.402344 C 290.820312 87.402344 289.105469 85.6875 289.105469 83.574219 C 289.105469 81.460938 290.820312 79.746094 292.929688 79.746094 " fill-opacity="1" fill-rule="evenodd"/><g clip-path="url(#id4)"><path stroke-linecap="butt" transform="matrix(0.176724, 0, 0, -0.176871, 65.240376, 242.60493)" fill="none" stroke-linejoin="miter" d="M 1288.39189 920.778903 C 1300.305795 920.778903 1310.031432 911.083439 1310.031432 899.13527 C 1310.031432 887.187102 1300.305795 877.491638 1288.39189 877.491638 C 1276.455881 877.491638 1266.752348 887.187102 1266.752348 899.13527 C 1266.752348 911.083439 1276.455881 920.778903 1288.39189 920.778903 Z M 1288.39189 920.778903 " stroke="rgb(13.729858%, 12.159729%, 12.548828%)" stroke-width="5.669" stroke-opacity="1" stroke-miterlimit="22.926001"/></g><g clip-path="url(#id5)"><path fill="rgb(13.729858%, 12.159729%, 12.548828%)" d="M 65.34375 101.789062 L 70.351562 101.933594 L 70.378906 100.933594 L 65.371094 100.785156 Z M 75.355469 102.078125 L 85.371094 102.371094 L 85.402344 101.367188 L 75.386719 101.078125 Z M 90.378906 102.515625 L 95.386719 102.660156 C 95.390625 102.660156 95.398438 102.660156 95.402344 102.660156 L 95.402344 101.660156 L 95.402344 102.160156 L 95.417969 101.660156 L 90.410156 101.515625 Z M 100.394531 102.808594 L 110.410156 103.097656 L 110.4375 102.09375 L 100.425781 101.804688 Z M 115.417969 103.242188 L 120.425781 103.386719 L 120.453125 102.386719 L 115.445312 102.242188 Z M 125.433594 103.535156 L 128.164062 103.613281 L 128.191406 102.609375 L 125.460938 102.53125 Z M 125.433594 103.535156 " fill-opacity="1" fill-rule="nonzero"/></g><path fill="rgb(13.729858%, 12.159729%, 12.548828%)" d="M 89.492188 58.527344 L 93.761719 61.152344 L 94.285156 60.296875 L 90.015625 57.671875 Z M 98.027344 63.777344 L 106.566406 69.027344 L 107.089844 68.171875 L 98.554688 62.921875 Z M 110.835938 71.652344 L 115.101562 74.273438 L 115.628906 73.421875 L 111.359375 70.796875 Z M 119.371094 76.898438 L 127.910156 82.144531 L 128.433594 81.292969 L 119.894531 76.042969 Z M 132.175781 84.769531 L 135.269531 86.671875 L 136.445312 87.394531 L 136.96875 86.539062 L 135.792969 85.816406 L 132.699219 83.914062 Z M 132.175781 84.769531 " fill-opacity="1" fill-rule="nonzero"/><g clip-path="url(#id6)"><path stroke-linecap="butt" transform="matrix(0.176724, 0, 0, -0.176871, 65.240376, 242.60493)" fill="none" stroke-linejoin="miter" d="M 299.449346 1163.67346 C 353.713979 1090.902268 407.978612 1018.086906 462.265349 945.271543 " stroke="rgb(13.729858%, 12.159729%, 12.548828%)" stroke-width="5.669" stroke-opacity="1" stroke-miterlimit="22.926001"/></g><path fill="rgb(13.729858%, 12.159729%, 12.548828%)" d="M 149.71875 35.980469 L 151.957031 45.753906 L 152.933594 45.53125 L 150.695312 35.753906 Z M 153.074219 50.640625 L 155.3125 60.414062 L 156.289062 60.191406 L 154.050781 50.417969 Z M 156.433594 65.300781 L 157.730469 70.972656 L 158.707031 70.75 L 157.410156 65.078125 Z M 156.433594 65.300781 " fill-opacity="1" fill-rule="nonzero"/><g clip-path="url(#id7)"><path stroke-linecap="butt" transform="matrix(0.176724, 0, 0, -0.176871, 65.240376, 242.60493)" fill="none" stroke-linejoin="miter" d="M 602.380831 1327.546675 C 601.673512 1215.551921 601.010401 1103.601338 600.303081 991.650755 " stroke="rgb(13.729858%, 12.159729%, 12.548828%)" stroke-width="5.669" stroke-opacity="1" stroke-miterlimit="22.926001"/></g><path fill="rgb(13.729858%, 12.159729%, 12.548828%)" d="M 201.839844 31.628906 L 197.230469 40.535156 L 198.121094 40.996094 L 202.730469 32.089844 Z M 194.925781 44.988281 L 190.316406 53.890625 L 191.207031 54.351562 L 195.816406 45.449219 Z M 188.011719 58.339844 L 186.183594 61.875 L 187.070312 62.335938 L 188.902344 58.800781 Z M 188.011719 58.339844 " fill-opacity="1" fill-rule="nonzero"/><path fill="rgb(13.729858%, 12.159729%, 12.548828%)" d="M 66.648438 149.3125 L 71.265625 147.371094 L 70.878906 146.445312 L 66.261719 148.386719 Z M 75.886719 145.429688 L 85.121094 141.546875 L 84.734375 140.621094 L 75.496094 144.503906 Z M 89.742188 139.605469 L 94.359375 137.664062 L 93.972656 136.738281 L 89.351562 138.679688 Z M 98.976562 135.722656 L 108.214844 131.839844 L 107.828125 130.914062 L 98.589844 134.796875 Z M 112.835938 129.898438 L 117.453125 127.957031 L 117.066406 127.03125 L 112.449219 128.972656 Z M 122.074219 126.015625 L 124.214844 125.117188 L 123.828125 124.191406 L 121.6875 125.09375 Z M 122.074219 126.015625 " fill-opacity="1" fill-rule="nonzero"/><path stroke-linecap="butt" transform="matrix(0.176724, 0, 0, -0.176871, 65.240376, 242.60493)" fill="none" stroke-linejoin="miter" d="M 450.263029 747.806528 L 453.622794 736.763859 L 464.696758 733.362716 L 453.622794 730.005745 L 450.263029 718.94099 L 446.88116 730.005745 L 435.851403 733.362716 L 446.88116 736.763859 Z M 450.263029 747.806528 " stroke="rgb(13.729858%, 12.159729%, 12.548828%)" stroke-width="5.669" stroke-opacity="1" stroke-miterlimit="22.926001"/><path fill="rgb(13.729858%, 12.159729%, 12.548828%)" d="M 260.007812 66.460938 L 260.601562 68.414062 L 262.554688 69.007812 L 260.601562 69.609375 L 260.007812 71.558594 L 259.410156 69.609375 L 257.453125 69.007812 L 259.410156 68.414062 L 260.007812 66.460938 " fill-opacity="1" fill-rule="evenodd"/><path stroke-linecap="butt" transform="matrix(0.176724, 0, 0, -0.176871, 65.240376, 242.60493)" fill="none" stroke-linejoin="miter" d="M 1102.101737 995.89114 L 1105.461502 984.848471 L 1116.513362 981.491499 L 1105.461502 978.090357 L 1102.101737 967.069773 L 1098.719868 978.090357 L 1087.645904 981.491499 L 1098.719868 984.848471 Z M 1102.101737 995.89114 " stroke="rgb(13.729858%, 12.159729%, 12.548828%)" stroke-width="5.669" stroke-opacity="1" stroke-miterlimit="22.926001"/><path stroke-linecap="round" transform="matrix(0.176724, 0, 0, -0.176871, 65.240376, 242.60493)" fill="none" stroke-linejoin="round" d="M 622.959395 735.946701 L 629.214747 716.555774 L 649.572274 716.599944 L 633.082899 704.651776 L 639.404562 685.305019 L 622.959395 697.297358 L 606.514227 685.305019 L 612.857995 704.651776 L 596.368619 716.599944 L 616.726146 716.555774 Z M 622.959395 735.946701 " stroke="rgb(13.729858%, 12.159729%, 12.548828%)" stroke-width="5.669" stroke-opacity="1" stroke-miterlimit="22.926001"/><path stroke-linecap="round" transform="matrix(0.176724, 0, 0, -0.176871, 65.240376, 242.60493)" fill="none" stroke-linejoin="round" d="M 640.244504 1032.685315 L 646.477753 1013.316473 L 666.835279 1013.360643 L 650.345904 1001.412475 L 656.689672 982.065718 L 640.244504 994.058057 L 623.799336 982.065718 L 630.121 1001.412475 L 613.631625 1013.360643 L 633.989151 1013.316473 Z M 640.244504 1032.685315 " stroke="rgb(13.729858%, 12.159729%, 12.548828%)" stroke-width="5.669" stroke-opacity="1" stroke-miterlimit="22.926001"/><path stroke-linecap="round" transform="matrix(0.176724, 0, 0, -0.176871, 65.240376, 242.60493)" fill="none" stroke-linejoin="round" d="M 731.24552 936.172384 C 735.003152 936.172384 738.009258 933.168778 738.009258 929.41427 C 738.009258 925.703933 735.003152 922.656156 731.24552 922.656156 C 727.532095 922.656156 724.481781 925.703933 724.481781 929.41427 C 724.481781 933.168778 727.532095 936.172384 731.24552 936.172384 Z M 731.24552 936.172384 " stroke="rgb(13.729858%, 12.159729%, 12.548828%)" stroke-width="5.669" stroke-opacity="1" stroke-miterlimit="22.926001"/><path stroke-linecap="round" transform="matrix(0.176724, 0, 0, -0.176871, 65.240376, 242.60493)" fill="none" stroke-linejoin="round" d="M 1123.719175 888.821417 C 1127.454704 888.821417 1130.46081 885.77364 1130.46081 882.063303 C 1130.46081 878.330881 1127.454704 875.283104 1123.719175 875.283104 C 1119.961543 875.283104 1116.955437 878.330881 1116.955437 882.063303 C 1116.955437 885.77364 1119.961543 888.821417 1123.719175 888.821417 Z M 1123.719175 888.821417 " stroke="rgb(13.729858%, 12.159729%, 12.548828%)" stroke-width="5.669" stroke-opacity="1" stroke-miterlimit="22.926001"/><path stroke-linecap="round" transform="matrix(0.176724, 0, 0, -0.176871, 65.240376, 242.60493)" fill="none" stroke-linejoin="round" d="M 943.286507 631.725987 C 946.999932 631.725987 950.028142 628.67821 950.028142 624.923702 C 950.028142 621.213365 946.999932 618.165589 943.286507 618.165589 C 939.528875 618.165589 936.478561 621.213365 936.478561 624.923702 C 936.478561 628.67821 939.528875 631.725987 943.286507 631.725987 Z M 943.286507 631.725987 " stroke="rgb(13.729858%, 12.159729%, 12.548828%)" stroke-width="5.669" stroke-opacity="1" stroke-miterlimit="22.926001"/><path stroke-linecap="round" transform="matrix(0.176724, 0, 0, -0.176871, 65.240376, 242.60493)" fill="none" stroke-linejoin="round" d="M 468.520702 676.802163 C 472.234127 676.802163 475.28444 673.798557 475.28444 670.04405 C 475.28444 666.333713 472.234127 663.285936 468.520702 663.285936 C 464.763069 663.285936 461.712756 666.333713 461.712756 670.04405 C 461.712756 673.798557 464.763069 676.802163 468.520702 676.802163 Z M 468.520702 676.802163 " stroke="rgb(13.729858%, 12.159729%, 12.548828%)" stroke-width="5.669" stroke-opacity="1" stroke-miterlimit="22.926001"/><path stroke-linecap="round" transform="matrix(0.176724, 0, 0, -0.176871, 65.240376, 242.60493)" fill="none" stroke-linejoin="round" d="M 444.80341 821.174024 C 448.561043 821.174024 451.611356 818.126247 451.611356 814.41591 C 451.611356 810.661403 448.561043 807.613626 444.80341 807.613626 C 441.089985 807.613626 438.039672 810.661403 438.039672 814.41591 C 438.039672 818.126247 441.089985 821.174024 444.80341 821.174024 Z M 444.80341 821.174024 " stroke="rgb(13.729858%, 12.159729%, 12.548828%)" stroke-width="5.669" stroke-opacity="1" stroke-miterlimit="22.926001"/><path fill="rgb(13.729858%, 12.159729%, 12.548828%)" d="M 92.445312 142.277344 C 94.574219 142.277344 96.292969 144.007812 96.292969 146.128906 C 96.292969 148.253906 94.574219 149.976562 92.445312 149.976562 C 90.328125 149.976562 88.601562 148.253906 88.601562 146.128906 C 88.601562 144.007812 90.328125 142.277344 92.445312 142.277344 " fill-opacity="1" fill-rule="evenodd"/><path stroke-linecap="round" transform="matrix(0.176724, 0, 0, -0.176871, 65.240376, 242.60493)" fill="none" stroke-linejoin="round" d="M 153.940556 567.236797 C 165.987084 567.236797 175.712721 557.452992 175.712721 545.460653 C 175.712721 533.446229 165.987084 523.706594 153.940556 523.706594 C 141.96034 523.706594 132.190496 533.446229 132.190496 545.460653 C 132.190496 557.452992 141.96034 567.236797 153.940556 567.236797 Z M 153.940556 567.236797 " stroke="rgb(13.729858%, 12.159729%, 12.548828%)" stroke-width="5.669" stroke-opacity="1" stroke-miterlimit="22.926001"/><g clip-path="url(#id8)"><path stroke-linecap="butt" transform="matrix(0.176724, 0, 0, -0.176871, 65.240376, 242.60493)" fill="none" stroke-linejoin="miter" d="M 767.031443 980.188464 C 852.882292 1077.695236 938.711037 1175.202007 1024.539783 1272.686693 " stroke="rgb(13.729858%, 12.159729%, 12.548828%)" stroke-width="5.669" stroke-opacity="1" stroke-miterlimit="22.926001"/></g><path fill="rgb(13.729858%, 12.159729%, 12.548828%)" d="M 210.308594 75.867188 L 212.074219 74.917969 L 211.597656 74.035156 L 209.832031 74.984375 Z M 212.953125 74.441406 L 214.71875 73.492188 C 214.734375 73.484375 214.746094 73.476562 214.757812 73.46875 L 214.203125 72.632812 L 214.480469 73.050781 L 214.242188 72.609375 L 212.480469 73.558594 Z M 215.601562 73.015625 L 217.367188 72.066406 L 217.128906 71.625 L 217.351562 72.074219 L 216.902344 71.175781 C 216.898438 71.179688 216.894531 71.179688 216.890625 71.183594 L 215.125 72.132812 Z M 218.246094 71.589844 L 220.011719 70.640625 L 219.535156 69.757812 L 217.773438 70.707031 Z M 220.894531 70.164062 L 222.660156 69.214844 L 222.183594 68.332031 L 220.417969 69.28125 Z M 223.539062 68.738281 L 225.304688 67.789062 L 224.828125 66.90625 L 223.066406 67.855469 Z M 226.1875 67.3125 L 227.953125 66.359375 L 227.476562 65.476562 L 225.710938 66.429688 Z M 228.832031 65.886719 L 230.597656 64.933594 L 230.121094 64.050781 L 228.359375 65.003906 Z M 231.480469 64.460938 L 233.242188 63.507812 L 233.007812 63.066406 L 233.230469 63.515625 L 232.78125 62.617188 C 232.777344 62.621094 232.773438 62.625 232.769531 62.625 L 231.003906 63.578125 Z M 234.125 63.035156 L 235.890625 62.082031 L 235.652344 61.640625 L 235.878906 62.089844 L 235.429688 61.191406 C 235.425781 61.195312 235.421875 61.199219 235.414062 61.199219 L 233.652344 62.152344 Z M 236.773438 61.605469 L 238.535156 60.65625 L 238.0625 59.773438 L 236.296875 60.722656 Z M 239.417969 60.179688 L 241.183594 59.230469 L 240.707031 58.347656 L 238.945312 59.296875 Z M 242.066406 58.753906 L 243.828125 57.804688 C 243.84375 57.796875 243.855469 57.789062 243.871094 57.78125 L 243.316406 56.945312 L 243.59375 57.363281 L 243.355469 56.921875 L 241.589844 57.871094 Z M 244.710938 57.328125 L 246.476562 56.378906 C 246.488281 56.371094 246.503906 56.363281 246.515625 56.351562 L 245.960938 55.519531 L 246.238281 55.9375 L 246 55.496094 L 244.238281 56.445312 Z M 247.359375 55.902344 L 249.121094 54.953125 L 248.648438 54.070312 L 246.882812 55.019531 Z M 250.003906 54.476562 L 251.769531 53.523438 L 251.292969 52.640625 L 249.53125 53.59375 Z M 252.652344 53.050781 L 254.414062 52.097656 L 254.179688 51.65625 L 254.402344 52.105469 L 253.953125 51.210938 C 253.949219 51.210938 253.945312 51.214844 253.941406 51.214844 L 252.175781 52.167969 Z M 255.296875 51.625 L 257.0625 50.671875 L 256.585938 49.789062 L 254.824219 50.742188 Z M 257.945312 50.199219 L 259.707031 49.246094 L 259.472656 48.804688 L 259.695312 49.253906 L 259.246094 48.355469 C 259.242188 48.359375 259.238281 48.363281 259.234375 48.363281 L 257.46875 49.316406 Z M 260.589844 48.769531 L 262 48.011719 C 262.015625 48.003906 262.027344 47.996094 262.039062 47.988281 L 261.484375 47.152344 L 261.761719 47.570312 L 261.523438 47.128906 L 260.117188 47.886719 Z M 260.589844 48.769531 " fill-opacity="1" fill-rule="nonzero"/><g clip-path="url(#id9)"><path stroke-linecap="butt" transform="matrix(0.176724, 0, 0, -0.176871, 65.240376, 242.60493)" fill="none" stroke-linejoin="miter" d="M 884.534819 805.206324 C 1050.401135 805.206324 1216.20114 805.206324 1382.023249 805.206324 " stroke="rgb(13.729858%, 12.159729%, 12.548828%)" stroke-width="5.669" stroke-opacity="1" stroke-miterlimit="22.926001"/></g><path fill="rgb(13.729858%, 12.159729%, 12.548828%)" d="M 289.285156 130.214844 L 284.441406 128.929688 L 284.183594 129.898438 L 289.027344 131.183594 Z M 281.535156 128.15625 L 280.566406 127.898438 L 280.308594 128.867188 L 281.277344 129.125 Z M 277.664062 127.128906 L 272.820312 125.839844 L 272.5625 126.808594 L 277.40625 128.097656 Z M 269.914062 125.070312 L 268.945312 124.8125 L 268.691406 125.78125 L 269.65625 126.039062 Z M 266.042969 124.039062 L 261.199219 122.753906 L 260.941406 123.722656 L 265.785156 125.007812 Z M 258.296875 121.980469 L 257.328125 121.722656 L 257.070312 122.691406 L 258.039062 122.949219 Z M 254.421875 120.953125 L 249.582031 119.664062 L 249.324219 120.636719 L 254.164062 121.921875 Z M 246.675781 118.894531 L 245.820312 118.667969 L 245.707031 118.636719 L 245.449219 119.605469 L 245.5625 119.636719 L 246.417969 119.863281 Z M 242.800781 117.863281 L 241.101562 117.414062 L 237.960938 116.578125 L 237.703125 117.546875 L 240.84375 118.382812 L 242.546875 118.835938 Z M 235.054688 115.808594 L 234.085938 115.550781 L 233.828125 116.519531 L 234.796875 116.777344 Z M 231.183594 114.777344 L 226.339844 113.492188 L 226.082031 114.460938 L 230.925781 115.75 Z M 223.433594 112.722656 L 222.464844 112.464844 L 222.210938 113.433594 L 223.175781 113.691406 Z M 219.5625 111.695312 L 219.394531 111.648438 L 218.773438 111.484375 L 218.515625 112.453125 L 219.140625 112.617188 L 219.304688 112.664062 Z M 219.5625 111.695312 " fill-opacity="1" fill-rule="nonzero"/><path fill="rgb(13.729858%, 12.159729%, 12.548828%)" d="M 233.625 113.695312 C 240.722656 113.695312 246.480469 119.453125 246.480469 126.5625 C 246.480469 133.125 241.5625 138.535156 235.21875 139.320312 C 237.703125 136.980469 239.265625 133.648438 239.265625 129.953125 C 239.265625 122.851562 233.507812 117.097656 226.410156 117.097656 C 225.871094 117.097656 225.339844 117.125 224.816406 117.191406 C 227.113281 115.023438 230.214844 113.695312 233.625 113.695312 " fill-opacity="1" fill-rule="evenodd"/><path stroke-linecap="butt" transform="matrix(0.176724, 0, 0, -0.176871, 65.240376, 242.60493)" fill="none" stroke-linejoin="miter" d="M 952.813211 728.835222 C 992.97567 728.835222 1025.556554 696.281432 1025.556554 656.086116 C 1025.556554 618.982746 997.72797 588.394552 961.831529 583.955399 C 975.889495 597.184517 984.730983 616.023311 984.730983 636.916041 C 984.730983 677.067188 952.150099 709.598892 911.98764 709.598892 C 908.937326 709.598892 905.93122 709.444294 902.969322 709.068844 C 915.966309 721.326207 933.516663 728.835222 952.813211 728.835222 Z M 952.813211 728.835222 " stroke="rgb(13.729858%, 12.159729%, 12.548828%)" stroke-width="5.669" stroke-opacity="1" stroke-miterlimit="22.926001"/><path fill="rgb(13.729858%, 12.159729%, 12.548828%)" d="M 132.726562 98.875 C 137.007812 98.875 140.480469 102.351562 140.480469 106.628906 C 140.480469 110.914062 137.007812 114.378906 132.726562 114.378906 C 128.453125 114.378906 124.980469 110.914062 124.980469 106.628906 C 124.980469 102.351562 128.453125 98.875 132.726562 98.875 " fill-opacity="1" fill-rule="evenodd"/><path stroke-linecap="round" transform="matrix(0.176724, 0, 0, -0.176871, 65.240376, 242.60493)" fill="none" stroke-linejoin="round" d="M 381.874119 812.626998 C 406.099796 812.626998 425.750003 792.971046 425.750003 768.7876 C 425.750003 744.559983 406.099796 724.970288 381.874119 724.970288 C 357.692649 724.970288 338.042442 744.559983 338.042442 768.7876 C 338.042442 792.971046 357.692649 812.626998 381.874119 812.626998 Z M 381.874119 812.626998 " stroke="rgb(13.729858%, 12.159729%, 12.548828%)" stroke-width="5.669" stroke-opacity="1" stroke-miterlimit="22.926001"/><path fill="rgb(13.729858%, 12.159729%, 12.548828%)" d="M 196.328125 144.871094 C 196.511719 144.460938 197.8125 142.679688 199.507812 141.574219 C 201.207031 140.460938 203.296875 140.039062 205.34375 140.035156 C 207.386719 140.035156 209.378906 140.460938 211.078125 141.082031 C 212.769531 141.707031 214.164062 142.519531 215.1875 142.390625 C 216.199219 142.257812 216.84375 141.179688 216.601562 141.457031 C 216.351562 141.734375 215.222656 143.371094 213.550781 143.917969 C 211.871094 144.460938 209.664062 143.929688 207.6875 143.433594 C 205.714844 142.941406 203.988281 142.5 202.410156 142.488281 C 200.835938 142.472656 199.417969 142.902344 198.246094 143.597656 C 197.070312 144.296875 196.148438 145.269531 196.328125 144.871094 " fill-opacity="1" fill-rule="evenodd"/><path fill="rgb(13.729858%, 12.159729%, 12.548828%)" d="M 218.734375 134.652344 C 218.957031 134.375 218.679688 132.929688 217.960938 131.820312 C 217.25 130.707031 216.109375 129.925781 214.300781 129.574219 C 212.5 129.222656 210.035156 129.304688 207.007812 129.484375 C 203.976562 129.671875 200.371094 129.953125 198.03125 130.570312 C 195.699219 131.175781 194.613281 132.109375 193.964844 132.972656 C 193.316406 133.835938 193.097656 134.636719 193.242188 135.265625 C 193.378906 135.902344 193.882812 136.363281 194.585938 136.40625 C 195.292969 136.449219 196.1875 136.0625 197.722656 135.523438 C 199.246094 134.976562 201.40625 134.273438 203.707031 133.792969 C 205.996094 133.316406 208.429688 133.070312 210.679688 133 C 212.929688 132.929688 215 133.035156 216.394531 133.539062 C 217.796875 134.035156 218.511719 134.929688 218.734375 134.652344 " fill-opacity="1" fill-rule="evenodd"/><path stroke-linecap="round" transform="matrix(0.176724, 0, 0, -0.176871, 65.240376, 242.60493)" fill="none" stroke-linejoin="round" d="M 707.771369 751.450609 C 711.484794 751.450609 714.535107 748.447003 714.535107 744.692495 C 714.535107 740.937988 711.484794 737.934382 707.771369 737.934382 C 704.013737 737.934382 700.985527 740.937988 700.985527 744.692495 C 700.985527 748.447003 704.013737 751.450609 707.771369 751.450609 Z M 707.771369 751.450609 " stroke="rgb(13.729858%, 12.159729%, 12.548828%)" stroke-width="5.669" stroke-opacity="1" stroke-miterlimit="22.926001"/><path stroke-linecap="round" transform="matrix(0.176724, 0, 0, -0.176871, 65.240376, 242.60493)" fill="none" stroke-linejoin="round" d="M 692.762943 680.203306 C 696.476368 680.203306 699.526681 677.177614 699.526681 673.445192 C 699.526681 669.690684 696.476368 666.687078 692.762943 666.687078 C 689.027414 666.687078 685.977101 669.690684 685.977101 673.445192 C 685.977101 677.177614 689.027414 680.203306 692.762943 680.203306 Z M 692.762943 680.203306 " stroke="rgb(13.729858%, 12.159729%, 12.548828%)" stroke-width="5.669" stroke-opacity="1" stroke-miterlimit="22.926001"/><path fill="rgb(13.729858%, 12.159729%, 12.548828%)" d="M 197.246094 96.527344 L 198.335938 100.085938 L 201.882812 101.175781 L 198.335938 102.269531 L 197.246094 105.820312 L 196.152344 102.269531 L 192.597656 101.175781 L 196.152344 100.085938 L 197.246094 96.527344 " fill-opacity="1" fill-rule="evenodd"/><path stroke-linecap="butt" transform="matrix(0.176724, 0, 0, -0.176871, 65.240376, 242.60493)" fill="none" stroke-linejoin="miter" d="M 746.961265 825.900287 L 753.128203 805.780543 L 773.198381 799.618733 L 753.128203 793.434838 L 746.961265 773.359265 L 740.772223 793.434838 L 720.657838 799.618733 L 740.772223 805.780543 Z M 746.961265 825.900287 " stroke="rgb(13.729858%, 12.159729%, 12.548828%)" stroke-width="5.669" stroke-opacity="1" stroke-miterlimit="22.926001"/></svg>